<svg xmlns="http://www.w3.org/2000/svg" xmlns:xlink="http://www.w3.org/1999/xlink" width="917" zoomAndPan="magnify" viewBox="0 0 687.75 314.250004" height="419" preserveAspectRatio="xMidYMid meet" version="1.0"><defs><g/><clipPath id="acf16e5c80"><path d="M 0.582031 145 L 378 145 L 378 189 L 0.582031 189 Z M 0.582031 145 " clip-rule="nonzero"/></clipPath><clipPath id="84a4bc0f03"><rect x="0" width="378" y="0" height="44"/></clipPath><clipPath id="01cd32c397"><path d="M 0.582031 203 L 576.167969 203 L 576.167969 281.917969 L 0.582031 281.917969 Z M 0.582031 203 " clip-rule="nonzero"/></clipPath><clipPath id="c7230f134a"><rect x="0" width="577" y="0" height="79"/></clipPath><clipPath id="8f17fcfb54"><path d="M 0.582031 0.113281 L 463 0.113281 L 463 69 L 0.582031 69 Z M 0.582031 0.113281 " clip-rule="nonzero"/></clipPath><clipPath id="c145431988"><rect x="0" width="463" y="0" height="69"/></clipPath><clipPath id="ae2918fecf"><rect x="0" width="577" y="0" height="282"/></clipPath></defs><g transform="matrix(1, 0, 0, 1, 14, 20)"><g clip-path="url(#ae2918fecf)"><g clip-path="url(#acf16e5c80)"><g transform="matrix(1, 0, 0, 1, 0, 145)"><g clip-path="url(#84a4bc0f03)"><g fill="#18375d" fill-opacity="1"><g transform="translate(0.757102, 31.832795)"><g><path d="M 15.390625 -11.1875 L 15.390625 -7.203125 C 15.390625 -4.773438 14.796875 -2.910156 13.609375 -1.609375 C 12.421875 -0.304688 10.671875 0.34375 8.359375 0.34375 C 6.046875 0.34375 4.296875 -0.304688 3.109375 -1.609375 C 1.921875 -2.910156 1.328125 -4.773438 1.328125 -7.203125 L 1.328125 -22.8125 C 1.328125 -25.238281 1.921875 -27.101562 3.109375 -28.40625 C 4.296875 -29.707031 6.046875 -30.359375 8.359375 -30.359375 C 10.671875 -30.359375 12.421875 -29.707031 13.609375 -28.40625 C 14.796875 -27.101562 15.390625 -25.238281 15.390625 -22.8125 L 15.390625 -19.890625 L 10.9375 -19.890625 L 10.9375 -23.109375 C 10.9375 -24.191406 10.710938 -24.953125 10.265625 -25.390625 C 9.828125 -25.835938 9.234375 -26.0625 8.484375 -26.0625 C 7.742188 -26.0625 7.148438 -25.835938 6.703125 -25.390625 C 6.265625 -24.953125 6.046875 -24.191406 6.046875 -23.109375 L 6.046875 -6.90625 C 6.046875 -5.820312 6.265625 -5.0625 6.703125 -4.625 C 7.148438 -4.195312 7.742188 -3.984375 8.484375 -3.984375 C 9.234375 -3.984375 9.828125 -4.195312 10.265625 -4.625 C 10.710938 -5.0625 10.9375 -5.820312 10.9375 -6.90625 L 10.9375 -11.1875 Z M 15.390625 -11.1875 "/></g></g></g><g fill="#18375d" fill-opacity="1"><g transform="translate(19.577837, 31.832795)"><g><path d="M 6.4375 0 L 1.71875 0 L 1.71875 -30.015625 L 6.4375 -30.015625 L 6.4375 -17.15625 L 11.796875 -17.15625 L 11.796875 -30.015625 L 16.59375 -30.015625 L 16.59375 0 L 11.796875 0 L 11.796875 -12.859375 L 6.4375 -12.859375 Z M 6.4375 0 "/></g></g></g><g fill="#18375d" fill-opacity="1"><g transform="translate(40.156264, 31.832795)"><g><path d="M 6.4375 -17.359375 L 12.90625 -17.359375 L 12.90625 -13.078125 L 6.4375 -13.078125 L 6.4375 -4.28125 L 14.578125 -4.28125 L 14.578125 0 L 1.71875 0 L 1.71875 -30.015625 L 14.578125 -30.015625 L 14.578125 -25.71875 L 6.4375 -25.71875 Z M 6.4375 -17.359375 "/></g></g></g><g fill="#18375d" fill-opacity="1"><g transform="translate(58.205334, 31.832795)"><g><path d="M 15.390625 -11.1875 L 15.390625 -7.203125 C 15.390625 -4.773438 14.796875 -2.910156 13.609375 -1.609375 C 12.421875 -0.304688 10.671875 0.34375 8.359375 0.34375 C 6.046875 0.34375 4.296875 -0.304688 3.109375 -1.609375 C 1.921875 -2.910156 1.328125 -4.773438 1.328125 -7.203125 L 1.328125 -22.8125 C 1.328125 -25.238281 1.921875 -27.101562 3.109375 -28.40625 C 4.296875 -29.707031 6.046875 -30.359375 8.359375 -30.359375 C 10.671875 -30.359375 12.421875 -29.707031 13.609375 -28.40625 C 14.796875 -27.101562 15.390625 -25.238281 15.390625 -22.8125 L 15.390625 -19.890625 L 10.9375 -19.890625 L 10.9375 -23.109375 C 10.9375 -24.191406 10.710938 -24.953125 10.265625 -25.390625 C 9.828125 -25.835938 9.234375 -26.0625 8.484375 -26.0625 C 7.742188 -26.0625 7.148438 -25.835938 6.703125 -25.390625 C 6.265625 -24.953125 6.046875 -24.191406 6.046875 -23.109375 L 6.046875 -6.90625 C 6.046875 -5.820312 6.265625 -5.0625 6.703125 -4.625 C 7.148438 -4.195312 7.742188 -3.984375 8.484375 -3.984375 C 9.234375 -3.984375 9.828125 -4.195312 10.265625 -4.625 C 10.710938 -5.0625 10.9375 -5.820312 10.9375 -6.90625 L 10.9375 -11.1875 Z M 15.390625 -11.1875 "/></g></g></g><g fill="#18375d" fill-opacity="1"><g transform="translate(77.026069, 31.832795)"><g><path d="M 7.890625 -11.96875 L 6.4375 -9.21875 L 6.4375 0 L 1.71875 0 L 1.71875 -30.015625 L 6.4375 -30.015625 L 6.4375 -16.9375 L 12.609375 -30.015625 L 17.328125 -30.015625 L 10.765625 -16.640625 L 17.328125 0 L 12.484375 0 Z M 7.890625 -11.96875 "/></g></g></g><g fill="#18375d" fill-opacity="1"><g transform="translate(97.047171, 31.832795)"><g/></g></g><g fill="#18375d" fill-opacity="1"><g transform="translate(105.964834, 31.832795)"><g><path d="M 6.046875 -6.90625 C 6.046875 -5.820312 6.265625 -5.054688 6.703125 -4.609375 C 7.148438 -4.160156 7.742188 -3.9375 8.484375 -3.9375 C 9.234375 -3.9375 9.828125 -4.160156 10.265625 -4.609375 C 10.710938 -5.054688 10.9375 -5.820312 10.9375 -6.90625 L 10.9375 -23.109375 C 10.9375 -24.191406 10.710938 -24.953125 10.265625 -25.390625 C 9.828125 -25.835938 9.234375 -26.0625 8.484375 -26.0625 C 7.742188 -26.0625 7.148438 -25.835938 6.703125 -25.390625 C 6.265625 -24.953125 6.046875 -24.191406 6.046875 -23.109375 Z M 1.328125 -22.8125 C 1.328125 -25.238281 1.941406 -27.101562 3.171875 -28.40625 C 4.398438 -29.707031 6.171875 -30.359375 8.484375 -30.359375 C 10.804688 -30.359375 12.582031 -29.707031 13.8125 -28.40625 C 15.039062 -27.101562 15.65625 -25.238281 15.65625 -22.8125 L 15.65625 -7.203125 C 15.65625 -4.773438 15.039062 -2.910156 13.8125 -1.609375 C 12.582031 -0.304688 10.804688 0.34375 8.484375 0.34375 C 6.171875 0.34375 4.398438 -0.304688 3.171875 -1.609375 C 1.941406 -2.910156 1.328125 -4.773438 1.328125 -7.203125 Z M 1.328125 -22.8125 "/></g></g></g><g fill="#18375d" fill-opacity="1"><g transform="translate(125.214271, 31.832795)"><g><path d="M 6.21875 -30.015625 L 6.21875 -6.859375 C 6.21875 -5.773438 6.4375 -5.015625 6.875 -4.578125 C 7.320312 -4.148438 7.914062 -3.9375 8.65625 -3.9375 C 9.40625 -3.9375 10 -4.148438 10.4375 -4.578125 C 10.882812 -5.015625 11.109375 -5.773438 11.109375 -6.859375 L 11.109375 -30.015625 L 15.5625 -30.015625 L 15.5625 -7.15625 C 15.5625 -4.726562 14.96875 -2.863281 13.78125 -1.5625 C 12.59375 -0.257812 10.84375 0.390625 8.53125 0.390625 C 6.21875 0.390625 4.46875 -0.257812 3.28125 -1.5625 C 2.09375 -2.863281 1.5 -4.726562 1.5 -7.15625 L 1.5 -30.015625 Z M 6.21875 -30.015625 "/></g></g></g><g fill="#18375d" fill-opacity="1"><g transform="translate(144.549449, 31.832795)"><g><path d="M 0.34375 -30.015625 L 14.921875 -30.015625 L 14.921875 -25.71875 L 9.984375 -25.71875 L 9.984375 0 L 5.28125 0 L 5.28125 -25.71875 L 0.34375 -25.71875 Z M 0.34375 -30.015625 "/></g></g></g><g fill="#18375d" fill-opacity="1"><g transform="translate(162.084077, 31.832795)"><g/></g></g><g fill="#18375d" fill-opacity="1"><g transform="translate(171.00174, 31.832795)"><g><path d="M 0.34375 -30.015625 L 14.921875 -30.015625 L 14.921875 -25.71875 L 9.984375 -25.71875 L 9.984375 0 L 5.28125 0 L 5.28125 -25.71875 L 0.34375 -25.71875 Z M 0.34375 -30.015625 "/></g></g></g><g fill="#18375d" fill-opacity="1"><g transform="translate(188.536368, 31.832795)"><g><path d="M 6.4375 0 L 1.71875 0 L 1.71875 -30.015625 L 6.4375 -30.015625 L 6.4375 -17.15625 L 11.796875 -17.15625 L 11.796875 -30.015625 L 16.59375 -30.015625 L 16.59375 0 L 11.796875 0 L 11.796875 -12.859375 L 6.4375 -12.859375 Z M 6.4375 0 "/></g></g></g><g fill="#18375d" fill-opacity="1"><g transform="translate(209.114794, 31.832795)"><g><path d="M 6.4375 -17.359375 L 12.90625 -17.359375 L 12.90625 -13.078125 L 6.4375 -13.078125 L 6.4375 -4.28125 L 14.578125 -4.28125 L 14.578125 0 L 1.71875 0 L 1.71875 -30.015625 L 14.578125 -30.015625 L 14.578125 -25.71875 L 6.4375 -25.71875 Z M 6.4375 -17.359375 "/></g></g></g><g fill="#18375d" fill-opacity="1"><g transform="translate(227.163865, 31.832795)"><g><path d="M 1.109375 -22.8125 C 1.109375 -25.238281 1.6875 -27.101562 2.84375 -28.40625 C 4.007812 -29.707031 5.75 -30.359375 8.0625 -30.359375 C 10.375 -30.359375 12.109375 -29.707031 13.265625 -28.40625 C 14.421875 -27.101562 15 -25.238281 15 -22.8125 L 15 -21.859375 L 10.546875 -21.859375 L 10.546875 -23.109375 C 10.546875 -24.191406 10.335938 -24.953125 9.921875 -25.390625 C 9.503906 -25.835938 8.925781 -26.0625 8.1875 -26.0625 C 7.445312 -26.0625 6.867188 -25.835938 6.453125 -25.390625 C 6.035156 -24.953125 5.828125 -24.191406 5.828125 -23.109375 C 5.828125 -22.078125 6.054688 -21.164062 6.515625 -20.375 C 6.972656 -19.59375 7.546875 -18.851562 8.234375 -18.15625 C 8.921875 -17.457031 9.65625 -16.753906 10.4375 -16.046875 C 11.226562 -15.347656 11.960938 -14.582031 12.640625 -13.75 C 13.328125 -12.925781 13.898438 -11.984375 14.359375 -10.921875 C 14.816406 -9.867188 15.046875 -8.628906 15.046875 -7.203125 C 15.046875 -4.773438 14.453125 -2.910156 13.265625 -1.609375 C 12.078125 -0.304688 10.328125 0.34375 8.015625 0.34375 C 5.703125 0.34375 3.953125 -0.304688 2.765625 -1.609375 C 1.578125 -2.910156 0.984375 -4.773438 0.984375 -7.203125 L 0.984375 -9.046875 L 5.4375 -9.046875 L 5.4375 -6.90625 C 5.4375 -5.820312 5.660156 -5.0625 6.109375 -4.625 C 6.554688 -4.195312 7.148438 -3.984375 7.890625 -3.984375 C 8.628906 -3.984375 9.21875 -4.195312 9.65625 -4.625 C 10.101562 -5.0625 10.328125 -5.820312 10.328125 -6.90625 C 10.328125 -7.9375 10.097656 -8.84375 9.640625 -9.625 C 9.179688 -10.40625 8.609375 -11.144531 7.921875 -11.84375 C 7.242188 -12.550781 6.507812 -13.253906 5.71875 -13.953125 C 4.9375 -14.648438 4.203125 -15.414062 3.515625 -16.25 C 2.828125 -17.082031 2.253906 -18.023438 1.796875 -19.078125 C 1.335938 -20.140625 1.109375 -21.382812 1.109375 -22.8125 Z M 1.109375 -22.8125 "/></g></g></g><g fill="#18375d" fill-opacity="1"><g transform="translate(245.470157, 31.832795)"><g><path d="M 6.4375 -17.359375 L 12.90625 -17.359375 L 12.90625 -13.078125 L 6.4375 -13.078125 L 6.4375 -4.28125 L 14.578125 -4.28125 L 14.578125 0 L 1.71875 0 L 1.71875 -30.015625 L 14.578125 -30.015625 L 14.578125 -25.71875 L 6.4375 -25.71875 Z M 6.4375 -17.359375 "/></g></g></g><g fill="#18375d" fill-opacity="1"><g transform="translate(263.519228, 31.832795)"><g/></g></g><g fill="#18375d" fill-opacity="1"><g transform="translate(272.436879, 31.832795)"><g><path d="M 8.828125 -5.53125 L 12.4375 -30.015625 L 16.765625 -30.015625 L 12.140625 0 L 5.109375 0 L 0.46875 -30.015625 L 5.234375 -30.015625 Z M 8.828125 -5.53125 "/></g></g></g><g fill="#18375d" fill-opacity="1"><g transform="translate(291.943561, 31.832795)"><g><path d="M 1.71875 -30.015625 L 6.4375 -30.015625 L 6.4375 0 L 1.71875 0 Z M 1.71875 -30.015625 "/></g></g></g><g fill="#18375d" fill-opacity="1"><g transform="translate(302.361682, 31.832795)"><g><path d="M 1.71875 -30.015625 L 9.171875 -30.015625 C 11.546875 -30.015625 13.3125 -29.382812 14.46875 -28.125 C 15.625 -26.863281 16.203125 -25.019531 16.203125 -22.59375 L 16.203125 -7.421875 C 16.203125 -4.984375 15.625 -3.132812 14.46875 -1.875 C 13.3125 -0.625 11.546875 0 9.171875 0 L 1.71875 0 Z M 6.4375 -25.71875 L 6.4375 -4.28125 L 9.09375 -4.28125 C 9.832031 -4.28125 10.414062 -4.492188 10.84375 -4.921875 C 11.269531 -5.359375 11.484375 -6.117188 11.484375 -7.203125 L 11.484375 -22.8125 C 11.484375 -23.894531 11.269531 -24.648438 10.84375 -25.078125 C 10.414062 -25.503906 9.832031 -25.71875 9.09375 -25.71875 Z M 6.4375 -25.71875 "/></g></g></g><g fill="#18375d" fill-opacity="1"><g transform="translate(322.125563, 31.832795)"><g><path d="M 6.4375 -17.359375 L 12.90625 -17.359375 L 12.90625 -13.078125 L 6.4375 -13.078125 L 6.4375 -4.28125 L 14.578125 -4.28125 L 14.578125 0 L 1.71875 0 L 1.71875 -30.015625 L 14.578125 -30.015625 L 14.578125 -25.71875 L 6.4375 -25.71875 Z M 6.4375 -17.359375 "/></g></g></g><g fill="#18375d" fill-opacity="1"><g transform="translate(340.174634, 31.832795)"><g><path d="M 6.046875 -6.90625 C 6.046875 -5.820312 6.265625 -5.054688 6.703125 -4.609375 C 7.148438 -4.160156 7.742188 -3.9375 8.484375 -3.9375 C 9.234375 -3.9375 9.828125 -4.160156 10.265625 -4.609375 C 10.710938 -5.054688 10.9375 -5.820312 10.9375 -6.90625 L 10.9375 -23.109375 C 10.9375 -24.191406 10.710938 -24.953125 10.265625 -25.390625 C 9.828125 -25.835938 9.234375 -26.0625 8.484375 -26.0625 C 7.742188 -26.0625 7.148438 -25.835938 6.703125 -25.390625 C 6.265625 -24.953125 6.046875 -24.191406 6.046875 -23.109375 Z M 1.328125 -22.8125 C 1.328125 -25.238281 1.941406 -27.101562 3.171875 -28.40625 C 4.398438 -29.707031 6.171875 -30.359375 8.484375 -30.359375 C 10.804688 -30.359375 12.582031 -29.707031 13.8125 -28.40625 C 15.039062 -27.101562 15.65625 -25.238281 15.65625 -22.8125 L 15.65625 -7.203125 C 15.65625 -4.773438 15.039062 -2.910156 13.8125 -1.609375 C 12.582031 -0.304688 10.804688 0.34375 8.484375 0.34375 C 6.171875 0.34375 4.398438 -0.304688 3.171875 -1.609375 C 1.941406 -2.910156 1.328125 -4.773438 1.328125 -7.203125 Z M 1.328125 -22.8125 "/></g></g></g><g fill="#18375d" fill-opacity="1"><g transform="translate(359.424072, 31.832795)"><g><path d="M 1.109375 -22.8125 C 1.109375 -25.238281 1.6875 -27.101562 2.84375 -28.40625 C 4.007812 -29.707031 5.75 -30.359375 8.0625 -30.359375 C 10.375 -30.359375 12.109375 -29.707031 13.265625 -28.40625 C 14.421875 -27.101562 15 -25.238281 15 -22.8125 L 15 -21.859375 L 10.546875 -21.859375 L 10.546875 -23.109375 C 10.546875 -24.191406 10.335938 -24.953125 9.921875 -25.390625 C 9.503906 -25.835938 8.925781 -26.0625 8.1875 -26.0625 C 7.445312 -26.0625 6.867188 -25.835938 6.453125 -25.390625 C 6.035156 -24.953125 5.828125 -24.191406 5.828125 -23.109375 C 5.828125 -22.078125 6.054688 -21.164062 6.515625 -20.375 C 6.972656 -19.59375 7.546875 -18.851562 8.234375 -18.15625 C 8.921875 -17.457031 9.65625 -16.753906 10.4375 -16.046875 C 11.226562 -15.347656 11.960938 -14.582031 12.640625 -13.75 C 13.328125 -12.925781 13.898438 -11.984375 14.359375 -10.921875 C 14.816406 -9.867188 15.046875 -8.628906 15.046875 -7.203125 C 15.046875 -4.773438 14.453125 -2.910156 13.265625 -1.609375 C 12.078125 -0.304688 10.328125 0.34375 8.015625 0.34375 C 5.703125 0.34375 3.953125 -0.304688 2.765625 -1.609375 C 1.578125 -2.910156 0.984375 -4.773438 0.984375 -7.203125 L 0.984375 -9.046875 L 5.4375 -9.046875 L 5.4375 -6.90625 C 5.4375 -5.820312 5.660156 -5.0625 6.109375 -4.625 C 6.554688 -4.195312 7.148438 -3.984375 7.890625 -3.984375 C 8.628906 -3.984375 9.21875 -4.195312 9.65625 -4.625 C 10.101562 -5.0625 10.328125 -5.820312 10.328125 -6.90625 C 10.328125 -7.9375 10.097656 -8.84375 9.640625 -9.625 C 9.179688 -10.40625 8.609375 -11.144531 7.921875 -11.84375 C 7.242188 -12.550781 6.507812 -13.253906 5.71875 -13.953125 C 4.9375 -14.648438 4.203125 -15.414062 3.515625 -16.25 C 2.828125 -17.082031 2.253906 -18.023438 1.796875 -19.078125 C 1.335938 -20.140625 1.109375 -21.382812 1.109375 -22.8125 Z M 1.109375 -22.8125 "/></g></g></g></g></g></g><g clip-path="url(#01cd32c397)"><g transform="matrix(1, 0, 0, 1, 0, 203)"><g clip-path="url(#c7230f134a)"><g fill="#547b60" fill-opacity="1"><g transform="translate(0.757096, 28.012597)"><g><path d="M 9.25 -14.78125 C 10.34375 -14.78125 11.328125 -14.546875 12.203125 -14.078125 C 13.085938 -13.609375 13.78125 -12.90625 14.28125 -11.96875 C 14.789062 -11.03125 15.046875 -9.890625 15.046875 -8.546875 L 15.046875 0 L 12.65625 0 L 12.65625 -8.203125 C 12.65625 -9.648438 12.289062 -10.757812 11.5625 -11.53125 C 10.84375 -12.300781 9.859375 -12.6875 8.609375 -12.6875 C 7.335938 -12.6875 6.328125 -12.285156 5.578125 -11.484375 C 4.828125 -10.691406 4.453125 -9.539062 4.453125 -8.03125 L 4.453125 0 L 2.046875 0 L 2.046875 -19.59375 L 4.453125 -19.59375 L 4.453125 -12.453125 C 4.929688 -13.191406 5.585938 -13.765625 6.421875 -14.171875 C 7.265625 -14.578125 8.207031 -14.78125 9.25 -14.78125 Z M 9.25 -14.78125 "/></g></g></g><g fill="#547b60" fill-opacity="1"><g transform="translate(20.318647, 28.012597)"><g><path d="M 15.28125 -7.8125 C 15.28125 -7.351562 15.253906 -6.867188 15.203125 -6.359375 L 3.609375 -6.359375 C 3.691406 -4.929688 4.175781 -3.8125 5.0625 -3 C 5.957031 -2.195312 7.039062 -1.796875 8.3125 -1.796875 C 9.351562 -1.796875 10.222656 -2.035156 10.921875 -2.515625 C 11.617188 -3.003906 12.109375 -3.65625 12.390625 -4.46875 L 14.984375 -4.46875 C 14.597656 -3.082031 13.820312 -1.953125 12.65625 -1.078125 C 11.488281 -0.203125 10.039062 0.234375 8.3125 0.234375 C 6.9375 0.234375 5.707031 -0.0703125 4.625 -0.6875 C 3.539062 -1.300781 2.6875 -2.175781 2.0625 -3.3125 C 1.445312 -4.457031 1.140625 -5.78125 1.140625 -7.28125 C 1.140625 -8.78125 1.4375 -10.09375 2.03125 -11.21875 C 2.632812 -12.351562 3.476562 -13.222656 4.5625 -13.828125 C 5.65625 -14.441406 6.90625 -14.75 8.3125 -14.75 C 9.6875 -14.75 10.90625 -14.445312 11.96875 -13.84375 C 13.03125 -13.25 13.847656 -12.425781 14.421875 -11.375 C 14.992188 -10.320312 15.28125 -9.132812 15.28125 -7.8125 Z M 12.796875 -8.3125 C 12.796875 -9.226562 12.59375 -10.015625 12.1875 -10.671875 C 11.78125 -11.335938 11.226562 -11.84375 10.53125 -12.1875 C 9.832031 -12.539062 9.054688 -12.71875 8.203125 -12.71875 C 6.984375 -12.71875 5.945312 -12.328125 5.09375 -11.546875 C 4.238281 -10.765625 3.75 -9.6875 3.625 -8.3125 Z M 12.796875 -8.3125 "/></g></g></g><g fill="#547b60" fill-opacity="1"><g transform="translate(39.350834, 28.012597)"><g><path d="M 4.453125 -12.15625 C 4.867188 -12.988281 5.46875 -13.632812 6.25 -14.09375 C 7.039062 -14.550781 8.003906 -14.78125 9.140625 -14.78125 L 9.140625 -12.28125 L 8.5 -12.28125 C 5.800781 -12.28125 4.453125 -10.816406 4.453125 -7.890625 L 4.453125 0 L 2.046875 0 L 2.046875 -14.515625 L 4.453125 -14.515625 Z M 4.453125 -12.15625 "/></g></g></g><g fill="#547b60" fill-opacity="1"><g transform="translate(51.845382, 28.012597)"><g><path d="M 15.28125 -7.8125 C 15.28125 -7.351562 15.253906 -6.867188 15.203125 -6.359375 L 3.609375 -6.359375 C 3.691406 -4.929688 4.175781 -3.8125 5.0625 -3 C 5.957031 -2.195312 7.039062 -1.796875 8.3125 -1.796875 C 9.351562 -1.796875 10.222656 -2.035156 10.921875 -2.515625 C 11.617188 -3.003906 12.109375 -3.65625 12.390625 -4.46875 L 14.984375 -4.46875 C 14.597656 -3.082031 13.820312 -1.953125 12.65625 -1.078125 C 11.488281 -0.203125 10.039062 0.234375 8.3125 0.234375 C 6.9375 0.234375 5.707031 -0.0703125 4.625 -0.6875 C 3.539062 -1.300781 2.6875 -2.175781 2.0625 -3.3125 C 1.445312 -4.457031 1.140625 -5.78125 1.140625 -7.28125 C 1.140625 -8.78125 1.4375 -10.09375 2.03125 -11.21875 C 2.632812 -12.351562 3.476562 -13.222656 4.5625 -13.828125 C 5.65625 -14.441406 6.90625 -14.75 8.3125 -14.75 C 9.6875 -14.75 10.90625 -14.445312 11.96875 -13.84375 C 13.03125 -13.25 13.847656 -12.425781 14.421875 -11.375 C 14.992188 -10.320312 15.28125 -9.132812 15.28125 -7.8125 Z M 12.796875 -8.3125 C 12.796875 -9.226562 12.59375 -10.015625 12.1875 -10.671875 C 11.78125 -11.335938 11.226562 -11.84375 10.53125 -12.1875 C 9.832031 -12.539062 9.054688 -12.71875 8.203125 -12.71875 C 6.984375 -12.71875 5.945312 -12.328125 5.09375 -11.546875 C 4.238281 -10.765625 3.75 -9.6875 3.625 -8.3125 Z M 12.796875 -8.3125 "/></g></g></g><g fill="#547b60" fill-opacity="1"><g transform="translate(70.877568, 28.012597)"><g/></g></g><g fill="#547b60" fill-opacity="1"><g transform="translate(80.566495, 28.012597)"><g><path d="M 1.140625 -7.3125 C 1.140625 -8.789062 1.4375 -10.085938 2.03125 -11.203125 C 2.632812 -12.328125 3.460938 -13.195312 4.515625 -13.8125 C 5.566406 -14.4375 6.738281 -14.75 8.03125 -14.75 C 9.300781 -14.75 10.398438 -14.472656 11.328125 -13.921875 C 12.265625 -13.378906 12.960938 -12.691406 13.421875 -11.859375 L 13.421875 -14.515625 L 15.859375 -14.515625 L 15.859375 0 L 13.421875 0 L 13.421875 -2.703125 C 12.953125 -1.859375 12.242188 -1.15625 11.296875 -0.59375 C 10.347656 -0.0390625 9.25 0.234375 8 0.234375 C 6.707031 0.234375 5.539062 -0.0820312 4.5 -0.71875 C 3.457031 -1.351562 2.632812 -2.242188 2.03125 -3.390625 C 1.4375 -4.535156 1.140625 -5.84375 1.140625 -7.3125 Z M 13.421875 -7.28125 C 13.421875 -8.375 13.203125 -9.328125 12.765625 -10.140625 C 12.328125 -10.953125 11.734375 -11.570312 10.984375 -12 C 10.234375 -12.4375 9.40625 -12.65625 8.5 -12.65625 C 7.601562 -12.65625 6.78125 -12.441406 6.03125 -12.015625 C 5.289062 -11.597656 4.703125 -10.984375 4.265625 -10.171875 C 3.828125 -9.359375 3.609375 -8.40625 3.609375 -7.3125 C 3.609375 -6.195312 3.828125 -5.226562 4.265625 -4.40625 C 4.703125 -3.582031 5.289062 -2.953125 6.03125 -2.515625 C 6.78125 -2.085938 7.601562 -1.875 8.5 -1.875 C 9.40625 -1.875 10.234375 -2.085938 10.984375 -2.515625 C 11.734375 -2.953125 12.328125 -3.582031 12.765625 -4.40625 C 13.203125 -5.226562 13.421875 -6.1875 13.421875 -7.28125 Z M 13.421875 -7.28125 "/></g></g></g><g fill="#547b60" fill-opacity="1"><g transform="translate(101.080896, 28.012597)"><g><path d="M 4.453125 -12.15625 C 4.867188 -12.988281 5.46875 -13.632812 6.25 -14.09375 C 7.039062 -14.550781 8.003906 -14.78125 9.140625 -14.78125 L 9.140625 -12.28125 L 8.5 -12.28125 C 5.800781 -12.28125 4.453125 -10.816406 4.453125 -7.890625 L 4.453125 0 L 2.046875 0 L 2.046875 -14.515625 L 4.453125 -14.515625 Z M 4.453125 -12.15625 "/></g></g></g><g fill="#547b60" fill-opacity="1"><g transform="translate(113.575444, 28.012597)"><g><path d="M 15.28125 -7.8125 C 15.28125 -7.351562 15.253906 -6.867188 15.203125 -6.359375 L 3.609375 -6.359375 C 3.691406 -4.929688 4.175781 -3.8125 5.0625 -3 C 5.957031 -2.195312 7.039062 -1.796875 8.3125 -1.796875 C 9.351562 -1.796875 10.222656 -2.035156 10.921875 -2.515625 C 11.617188 -3.003906 12.109375 -3.65625 12.390625 -4.46875 L 14.984375 -4.46875 C 14.597656 -3.082031 13.820312 -1.953125 12.65625 -1.078125 C 11.488281 -0.203125 10.039062 0.234375 8.3125 0.234375 C 6.9375 0.234375 5.707031 -0.0703125 4.625 -0.6875 C 3.539062 -1.300781 2.6875 -2.175781 2.0625 -3.3125 C 1.445312 -4.457031 1.140625 -5.78125 1.140625 -7.28125 C 1.140625 -8.78125 1.4375 -10.09375 2.03125 -11.21875 C 2.632812 -12.351562 3.476562 -13.222656 4.5625 -13.828125 C 5.65625 -14.441406 6.90625 -14.75 8.3125 -14.75 C 9.6875 -14.75 10.90625 -14.445312 11.96875 -13.84375 C 13.03125 -13.25 13.847656 -12.425781 14.421875 -11.375 C 14.992188 -10.320312 15.28125 -9.132812 15.28125 -7.8125 Z M 12.796875 -8.3125 C 12.796875 -9.226562 12.59375 -10.015625 12.1875 -10.671875 C 11.78125 -11.335938 11.226562 -11.84375 10.53125 -12.1875 C 9.832031 -12.539062 9.054688 -12.71875 8.203125 -12.71875 C 6.984375 -12.71875 5.945312 -12.328125 5.09375 -11.546875 C 4.238281 -10.765625 3.75 -9.6875 3.625 -8.3125 Z M 12.796875 -8.3125 "/></g></g></g><g fill="#547b60" fill-opacity="1"><g transform="translate(132.607631, 28.012597)"><g/></g></g><g fill="#547b60" fill-opacity="1"><g transform="translate(142.296558, 28.012597)"><g><path d="M 7.171875 0.234375 C 6.066406 0.234375 5.070312 0.046875 4.1875 -0.328125 C 3.300781 -0.710938 2.601562 -1.242188 2.09375 -1.921875 C 1.582031 -2.597656 1.300781 -3.378906 1.25 -4.265625 L 3.734375 -4.265625 C 3.804688 -3.535156 4.144531 -2.941406 4.75 -2.484375 C 5.363281 -2.023438 6.164062 -1.796875 7.15625 -1.796875 C 8.070312 -1.796875 8.789062 -2 9.3125 -2.40625 C 9.84375 -2.8125 10.109375 -3.328125 10.109375 -3.953125 C 10.109375 -4.585938 9.828125 -5.054688 9.265625 -5.359375 C 8.703125 -5.671875 7.828125 -5.976562 6.640625 -6.28125 C 5.566406 -6.5625 4.691406 -6.847656 4.015625 -7.140625 C 3.335938 -7.429688 2.753906 -7.863281 2.265625 -8.4375 C 1.773438 -9.007812 1.53125 -9.765625 1.53125 -10.703125 C 1.53125 -11.441406 1.75 -12.117188 2.1875 -12.734375 C 2.632812 -13.359375 3.265625 -13.847656 4.078125 -14.203125 C 4.890625 -14.566406 5.816406 -14.75 6.859375 -14.75 C 8.460938 -14.75 9.757812 -14.34375 10.75 -13.53125 C 11.738281 -12.71875 12.269531 -11.609375 12.34375 -10.203125 L 9.9375 -10.203125 C 9.882812 -10.953125 9.578125 -11.554688 9.015625 -12.015625 C 8.460938 -12.484375 7.71875 -12.71875 6.78125 -12.71875 C 5.914062 -12.71875 5.226562 -12.53125 4.71875 -12.15625 C 4.207031 -11.78125 3.953125 -11.296875 3.953125 -10.703125 C 3.953125 -10.222656 4.101562 -9.828125 4.40625 -9.515625 C 4.71875 -9.210938 5.109375 -8.96875 5.578125 -8.78125 C 6.046875 -8.59375 6.691406 -8.382812 7.515625 -8.15625 C 8.554688 -7.875 9.40625 -7.59375 10.0625 -7.3125 C 10.71875 -7.039062 11.28125 -6.628906 11.75 -6.078125 C 12.21875 -5.535156 12.457031 -4.828125 12.46875 -3.953125 C 12.46875 -3.148438 12.25 -2.429688 11.8125 -1.796875 C 11.375 -1.160156 10.75 -0.660156 9.9375 -0.296875 C 9.132812 0.0546875 8.210938 0.234375 7.171875 0.234375 Z M 7.171875 0.234375 "/></g></g></g><g fill="#547b60" fill-opacity="1"><g transform="translate(158.73486, 28.012597)"><g><path d="M 8.375 0.234375 C 7.007812 0.234375 5.773438 -0.0703125 4.671875 -0.6875 C 3.566406 -1.300781 2.703125 -2.175781 2.078125 -3.3125 C 1.453125 -4.457031 1.140625 -5.78125 1.140625 -7.28125 C 1.140625 -8.769531 1.460938 -10.082031 2.109375 -11.21875 C 2.753906 -12.351562 3.628906 -13.222656 4.734375 -13.828125 C 5.847656 -14.441406 7.09375 -14.75 8.46875 -14.75 C 9.851562 -14.75 11.097656 -14.441406 12.203125 -13.828125 C 13.316406 -13.222656 14.195312 -12.351562 14.84375 -11.21875 C 15.488281 -10.09375 15.8125 -8.78125 15.8125 -7.28125 C 15.8125 -5.78125 15.476562 -4.457031 14.8125 -3.3125 C 14.15625 -2.175781 13.257812 -1.300781 12.125 -0.6875 C 11 -0.0703125 9.75 0.234375 8.375 0.234375 Z M 8.375 -1.875 C 9.238281 -1.875 10.046875 -2.078125 10.796875 -2.484375 C 11.554688 -2.890625 12.171875 -3.5 12.640625 -4.3125 C 13.109375 -5.125 13.34375 -6.113281 13.34375 -7.28125 C 13.34375 -8.445312 13.113281 -9.4375 12.65625 -10.25 C 12.195312 -11.0625 11.597656 -11.664062 10.859375 -12.0625 C 10.117188 -12.457031 9.316406 -12.65625 8.453125 -12.65625 C 7.566406 -12.65625 6.753906 -12.457031 6.015625 -12.0625 C 5.285156 -11.664062 4.703125 -11.0625 4.265625 -10.25 C 3.828125 -9.4375 3.609375 -8.445312 3.609375 -7.28125 C 3.609375 -6.101562 3.820312 -5.109375 4.25 -4.296875 C 4.6875 -3.484375 5.265625 -2.875 5.984375 -2.46875 C 6.710938 -2.070312 7.507812 -1.875 8.375 -1.875 Z M 8.375 -1.875 "/></g></g></g><g fill="#547b60" fill-opacity="1"><g transform="translate(178.296412, 28.012597)"><g><path d="M 19.5 -14.78125 C 20.625 -14.78125 21.628906 -14.546875 22.515625 -14.078125 C 23.398438 -13.609375 24.097656 -12.90625 24.609375 -11.96875 C 25.117188 -11.03125 25.375 -9.890625 25.375 -8.546875 L 25.375 0 L 22.984375 0 L 22.984375 -8.203125 C 22.984375 -9.648438 22.625 -10.757812 21.90625 -11.53125 C 21.195312 -12.300781 20.234375 -12.6875 19.015625 -12.6875 C 17.765625 -12.6875 16.765625 -12.285156 16.015625 -11.484375 C 15.273438 -10.679688 14.90625 -9.519531 14.90625 -8 L 14.90625 0 L 12.53125 0 L 12.53125 -8.203125 C 12.53125 -9.648438 12.171875 -10.757812 11.453125 -11.53125 C 10.734375 -12.300781 9.765625 -12.6875 8.546875 -12.6875 C 7.296875 -12.6875 6.300781 -12.285156 5.5625 -11.484375 C 4.820312 -10.679688 4.453125 -9.519531 4.453125 -8 L 4.453125 0 L 2.046875 0 L 2.046875 -14.515625 L 4.453125 -14.515625 L 4.453125 -12.421875 C 4.929688 -13.179688 5.570312 -13.765625 6.375 -14.171875 C 7.175781 -14.578125 8.0625 -14.78125 9.03125 -14.78125 C 10.25 -14.78125 11.328125 -14.503906 12.265625 -13.953125 C 13.203125 -13.410156 13.898438 -12.609375 14.359375 -11.546875 C 14.765625 -12.566406 15.429688 -13.359375 16.359375 -13.921875 C 17.296875 -14.492188 18.34375 -14.78125 19.5 -14.78125 Z M 19.5 -14.78125 "/></g></g></g><g fill="#547b60" fill-opacity="1"><g transform="translate(208.180548, 28.012597)"><g><path d="M 15.28125 -7.8125 C 15.28125 -7.351562 15.253906 -6.867188 15.203125 -6.359375 L 3.609375 -6.359375 C 3.691406 -4.929688 4.175781 -3.8125 5.0625 -3 C 5.957031 -2.195312 7.039062 -1.796875 8.3125 -1.796875 C 9.351562 -1.796875 10.222656 -2.035156 10.921875 -2.515625 C 11.617188 -3.003906 12.109375 -3.65625 12.390625 -4.46875 L 14.984375 -4.46875 C 14.597656 -3.082031 13.820312 -1.953125 12.65625 -1.078125 C 11.488281 -0.203125 10.039062 0.234375 8.3125 0.234375 C 6.9375 0.234375 5.707031 -0.0703125 4.625 -0.6875 C 3.539062 -1.300781 2.6875 -2.175781 2.0625 -3.3125 C 1.445312 -4.457031 1.140625 -5.78125 1.140625 -7.28125 C 1.140625 -8.78125 1.4375 -10.09375 2.03125 -11.21875 C 2.632812 -12.351562 3.476562 -13.222656 4.5625 -13.828125 C 5.65625 -14.441406 6.90625 -14.75 8.3125 -14.75 C 9.6875 -14.75 10.90625 -14.445312 11.96875 -13.84375 C 13.03125 -13.25 13.847656 -12.425781 14.421875 -11.375 C 14.992188 -10.320312 15.28125 -9.132812 15.28125 -7.8125 Z M 12.796875 -8.3125 C 12.796875 -9.226562 12.59375 -10.015625 12.1875 -10.671875 C 11.78125 -11.335938 11.226562 -11.84375 10.53125 -12.1875 C 9.832031 -12.539062 9.054688 -12.71875 8.203125 -12.71875 C 6.984375 -12.71875 5.945312 -12.328125 5.09375 -11.546875 C 4.238281 -10.765625 3.75 -9.6875 3.625 -8.3125 Z M 12.796875 -8.3125 "/></g></g></g><g fill="#547b60" fill-opacity="1"><g transform="translate(227.212747, 28.012597)"><g/></g></g><g fill="#547b60" fill-opacity="1"><g transform="translate(236.901674, 28.012597)"><g><path d="M 15.28125 -7.8125 C 15.28125 -7.351562 15.253906 -6.867188 15.203125 -6.359375 L 3.609375 -6.359375 C 3.691406 -4.929688 4.175781 -3.8125 5.0625 -3 C 5.957031 -2.195312 7.039062 -1.796875 8.3125 -1.796875 C 9.351562 -1.796875 10.222656 -2.035156 10.921875 -2.515625 C 11.617188 -3.003906 12.109375 -3.65625 12.390625 -4.46875 L 14.984375 -4.46875 C 14.597656 -3.082031 13.820312 -1.953125 12.65625 -1.078125 C 11.488281 -0.203125 10.039062 0.234375 8.3125 0.234375 C 6.9375 0.234375 5.707031 -0.0703125 4.625 -0.6875 C 3.539062 -1.300781 2.6875 -2.175781 2.0625 -3.3125 C 1.445312 -4.457031 1.140625 -5.78125 1.140625 -7.28125 C 1.140625 -8.78125 1.4375 -10.09375 2.03125 -11.21875 C 2.632812 -12.351562 3.476562 -13.222656 4.5625 -13.828125 C 5.65625 -14.441406 6.90625 -14.75 8.3125 -14.75 C 9.6875 -14.75 10.90625 -14.445312 11.96875 -13.84375 C 13.03125 -13.25 13.847656 -12.425781 14.421875 -11.375 C 14.992188 -10.320312 15.28125 -9.132812 15.28125 -7.8125 Z M 12.796875 -8.3125 C 12.796875 -9.226562 12.59375 -10.015625 12.1875 -10.671875 C 11.78125 -11.335938 11.226562 -11.84375 10.53125 -12.1875 C 9.832031 -12.539062 9.054688 -12.71875 8.203125 -12.71875 C 6.984375 -12.71875 5.945312 -12.328125 5.09375 -11.546875 C 4.238281 -10.765625 3.75 -9.6875 3.625 -8.3125 Z M 12.796875 -8.3125 "/></g></g></g><g fill="#547b60" fill-opacity="1"><g transform="translate(255.933849, 28.012597)"><g><path d="M 1.140625 -7.3125 C 1.140625 -8.789062 1.4375 -10.085938 2.03125 -11.203125 C 2.632812 -12.328125 3.460938 -13.195312 4.515625 -13.8125 C 5.566406 -14.4375 6.742188 -14.75 8.046875 -14.75 C 9.179688 -14.75 10.234375 -14.488281 11.203125 -13.96875 C 12.171875 -13.445312 12.910156 -12.765625 13.421875 -11.921875 L 13.421875 -19.59375 L 15.859375 -19.59375 L 15.859375 0 L 13.421875 0 L 13.421875 -2.734375 C 12.953125 -1.867188 12.25 -1.15625 11.3125 -0.59375 C 10.375 -0.0390625 9.28125 0.234375 8.03125 0.234375 C 6.738281 0.234375 5.566406 -0.0820312 4.515625 -0.71875 C 3.460938 -1.351562 2.632812 -2.242188 2.03125 -3.390625 C 1.4375 -4.535156 1.140625 -5.84375 1.140625 -7.3125 Z M 13.421875 -7.28125 C 13.421875 -8.375 13.203125 -9.328125 12.765625 -10.140625 C 12.328125 -10.953125 11.734375 -11.570312 10.984375 -12 C 10.234375 -12.4375 9.40625 -12.65625 8.5 -12.65625 C 7.601562 -12.65625 6.78125 -12.441406 6.03125 -12.015625 C 5.289062 -11.597656 4.703125 -10.984375 4.265625 -10.171875 C 3.828125 -9.359375 3.609375 -8.40625 3.609375 -7.3125 C 3.609375 -6.195312 3.828125 -5.226562 4.265625 -4.40625 C 4.703125 -3.582031 5.289062 -2.953125 6.03125 -2.515625 C 6.78125 -2.085938 7.601562 -1.875 8.5 -1.875 C 9.40625 -1.875 10.234375 -2.085938 10.984375 -2.515625 C 11.734375 -2.953125 12.328125 -3.582031 12.765625 -4.40625 C 13.203125 -5.226562 13.421875 -6.1875 13.421875 -7.28125 Z M 13.421875 -7.28125 "/></g></g></g><g fill="#547b60" fill-opacity="1"><g transform="translate(276.44825, 28.012597)"><g><path d="M 14.90625 -14.515625 L 14.90625 0 L 12.5 0 L 12.5 -2.140625 C 12.039062 -1.398438 11.398438 -0.820312 10.578125 -0.40625 C 9.753906 0.0078125 8.847656 0.21875 7.859375 0.21875 C 6.734375 0.21875 5.71875 -0.015625 4.8125 -0.484375 C 3.914062 -0.953125 3.207031 -1.65625 2.6875 -2.59375 C 2.164062 -3.53125 1.90625 -4.671875 1.90625 -6.015625 L 1.90625 -14.515625 L 4.296875 -14.515625 L 4.296875 -6.328125 C 4.296875 -4.898438 4.65625 -3.800781 5.375 -3.03125 C 6.101562 -2.257812 7.09375 -1.875 8.34375 -1.875 C 9.632812 -1.875 10.648438 -2.269531 11.390625 -3.0625 C 12.128906 -3.863281 12.5 -5.023438 12.5 -6.546875 L 12.5 -14.515625 Z M 14.90625 -14.515625 "/></g></g></g><g fill="#547b60" fill-opacity="1"><g transform="translate(296.009802, 28.012597)"><g><path d="M 1.140625 -7.28125 C 1.140625 -8.78125 1.4375 -10.085938 2.03125 -11.203125 C 2.632812 -12.328125 3.46875 -13.195312 4.53125 -13.8125 C 5.601562 -14.4375 6.828125 -14.75 8.203125 -14.75 C 9.992188 -14.75 11.46875 -14.316406 12.625 -13.453125 C 13.78125 -12.585938 14.539062 -11.390625 14.90625 -9.859375 L 12.3125 -9.859375 C 12.0625 -10.734375 11.578125 -11.425781 10.859375 -11.9375 C 10.148438 -12.457031 9.265625 -12.71875 8.203125 -12.71875 C 6.828125 -12.71875 5.71875 -12.242188 4.875 -11.296875 C 4.03125 -10.347656 3.609375 -9.007812 3.609375 -7.28125 C 3.609375 -5.53125 4.03125 -4.175781 4.875 -3.21875 C 5.71875 -2.269531 6.828125 -1.796875 8.203125 -1.796875 C 9.265625 -1.796875 10.148438 -2.039062 10.859375 -2.53125 C 11.566406 -3.03125 12.050781 -3.738281 12.3125 -4.65625 L 14.90625 -4.65625 C 14.519531 -3.175781 13.742188 -1.988281 12.578125 -1.09375 C 11.410156 -0.207031 9.953125 0.234375 8.203125 0.234375 C 6.828125 0.234375 5.601562 -0.0703125 4.53125 -0.6875 C 3.46875 -1.300781 2.632812 -2.171875 2.03125 -3.296875 C 1.4375 -4.429688 1.140625 -5.757812 1.140625 -7.28125 Z M 1.140625 -7.28125 "/></g></g></g><g fill="#547b60" fill-opacity="1"><g transform="translate(314.697919, 28.012597)"><g><path d="M 1.140625 -7.3125 C 1.140625 -8.789062 1.4375 -10.085938 2.03125 -11.203125 C 2.632812 -12.328125 3.460938 -13.195312 4.515625 -13.8125 C 5.566406 -14.4375 6.738281 -14.75 8.03125 -14.75 C 9.300781 -14.75 10.398438 -14.472656 11.328125 -13.921875 C 12.265625 -13.378906 12.960938 -12.691406 13.421875 -11.859375 L 13.421875 -14.515625 L 15.859375 -14.515625 L 15.859375 0 L 13.421875 0 L 13.421875 -2.703125 C 12.953125 -1.859375 12.242188 -1.15625 11.296875 -0.59375 C 10.347656 -0.0390625 9.25 0.234375 8 0.234375 C 6.707031 0.234375 5.539062 -0.0820312 4.5 -0.71875 C 3.457031 -1.351562 2.632812 -2.242188 2.03125 -3.390625 C 1.4375 -4.535156 1.140625 -5.84375 1.140625 -7.3125 Z M 13.421875 -7.28125 C 13.421875 -8.375 13.203125 -9.328125 12.765625 -10.140625 C 12.328125 -10.953125 11.734375 -11.570312 10.984375 -12 C 10.234375 -12.4375 9.40625 -12.65625 8.5 -12.65625 C 7.601562 -12.65625 6.78125 -12.441406 6.03125 -12.015625 C 5.289062 -11.597656 4.703125 -10.984375 4.265625 -10.171875 C 3.828125 -9.359375 3.609375 -8.40625 3.609375 -7.3125 C 3.609375 -6.195312 3.828125 -5.226562 4.265625 -4.40625 C 4.703125 -3.582031 5.289062 -2.953125 6.03125 -2.515625 C 6.78125 -2.085938 7.601562 -1.875 8.5 -1.875 C 9.40625 -1.875 10.234375 -2.085938 10.984375 -2.515625 C 11.734375 -2.953125 12.328125 -3.582031 12.765625 -4.40625 C 13.203125 -5.226562 13.421875 -6.1875 13.421875 -7.28125 Z M 13.421875 -7.28125 "/></g></g></g><g fill="#547b60" fill-opacity="1"><g transform="translate(335.212297, 28.012597)"><g><path d="M 4.984375 -12.53125 L 4.984375 -3.96875 C 4.984375 -3.257812 5.128906 -2.757812 5.421875 -2.46875 C 5.722656 -2.1875 6.242188 -2.046875 6.984375 -2.046875 L 8.765625 -2.046875 L 8.765625 0 L 6.59375 0 C 5.25 0 4.238281 -0.304688 3.5625 -0.921875 C 2.894531 -1.546875 2.5625 -2.5625 2.5625 -3.96875 L 2.5625 -12.53125 L 0.6875 -12.53125 L 0.6875 -14.515625 L 2.5625 -14.515625 L 2.5625 -18.171875 L 4.984375 -18.171875 L 4.984375 -14.515625 L 8.765625 -14.515625 L 8.765625 -12.53125 Z M 4.984375 -12.53125 "/></g></g></g><g fill="#547b60" fill-opacity="1"><g transform="translate(347.468644, 28.012597)"><g><path d="M 3.28125 -16.875 C 2.820312 -16.875 2.429688 -17.03125 2.109375 -17.34375 C 1.796875 -17.664062 1.640625 -18.054688 1.640625 -18.515625 C 1.640625 -18.972656 1.796875 -19.359375 2.109375 -19.671875 C 2.429688 -19.992188 2.820312 -20.15625 3.28125 -20.15625 C 3.726562 -20.15625 4.101562 -19.992188 4.40625 -19.671875 C 4.71875 -19.359375 4.875 -18.972656 4.875 -18.515625 C 4.875 -18.054688 4.71875 -17.664062 4.40625 -17.34375 C 4.101562 -17.03125 3.726562 -16.875 3.28125 -16.875 Z M 4.453125 -14.515625 L 4.453125 0 L 2.046875 0 L 2.046875 -14.515625 Z M 4.453125 -14.515625 "/></g></g></g><g fill="#547b60" fill-opacity="1"><g transform="translate(356.601754, 28.012597)"><g><path d="M 8.375 0.234375 C 7.007812 0.234375 5.773438 -0.0703125 4.671875 -0.6875 C 3.566406 -1.300781 2.703125 -2.175781 2.078125 -3.3125 C 1.453125 -4.457031 1.140625 -5.78125 1.140625 -7.28125 C 1.140625 -8.769531 1.460938 -10.082031 2.109375 -11.21875 C 2.753906 -12.351562 3.628906 -13.222656 4.734375 -13.828125 C 5.847656 -14.441406 7.09375 -14.75 8.46875 -14.75 C 9.851562 -14.75 11.097656 -14.441406 12.203125 -13.828125 C 13.316406 -13.222656 14.195312 -12.351562 14.84375 -11.21875 C 15.488281 -10.09375 15.8125 -8.78125 15.8125 -7.28125 C 15.8125 -5.78125 15.476562 -4.457031 14.8125 -3.3125 C 14.15625 -2.175781 13.257812 -1.300781 12.125 -0.6875 C 11 -0.0703125 9.75 0.234375 8.375 0.234375 Z M 8.375 -1.875 C 9.238281 -1.875 10.046875 -2.078125 10.796875 -2.484375 C 11.554688 -2.890625 12.171875 -3.5 12.640625 -4.3125 C 13.109375 -5.125 13.34375 -6.113281 13.34375 -7.28125 C 13.34375 -8.445312 13.113281 -9.4375 12.65625 -10.25 C 12.195312 -11.0625 11.597656 -11.664062 10.859375 -12.0625 C 10.117188 -12.457031 9.316406 -12.65625 8.453125 -12.65625 C 7.566406 -12.65625 6.753906 -12.457031 6.015625 -12.0625 C 5.285156 -11.664062 4.703125 -11.0625 4.265625 -10.25 C 3.828125 -9.4375 3.609375 -8.445312 3.609375 -7.28125 C 3.609375 -6.101562 3.820312 -5.109375 4.25 -4.296875 C 4.6875 -3.484375 5.265625 -2.875 5.984375 -2.46875 C 6.710938 -2.070312 7.507812 -1.875 8.375 -1.875 Z M 8.375 -1.875 "/></g></g></g><g fill="#547b60" fill-opacity="1"><g transform="translate(376.163282, 28.012597)"><g><path d="M 9.109375 -14.78125 C 10.878906 -14.78125 12.3125 -14.242188 13.40625 -13.171875 C 14.5 -12.109375 15.046875 -10.566406 15.046875 -8.546875 L 15.046875 0 L 12.65625 0 L 12.65625 -8.203125 C 12.65625 -9.648438 12.289062 -10.757812 11.5625 -11.53125 C 10.84375 -12.300781 9.859375 -12.6875 8.609375 -12.6875 C 7.335938 -12.6875 6.328125 -12.285156 5.578125 -11.484375 C 4.828125 -10.691406 4.453125 -9.539062 4.453125 -8.03125 L 4.453125 0 L 2.046875 0 L 2.046875 -14.515625 L 4.453125 -14.515625 L 4.453125 -12.453125 C 4.929688 -13.191406 5.578125 -13.765625 6.390625 -14.171875 C 7.210938 -14.578125 8.117188 -14.78125 9.109375 -14.78125 Z M 9.109375 -14.78125 "/></g></g></g><g fill="#547b60" fill-opacity="1"><g transform="translate(395.724856, 28.012597)"><g><path d="M 1.140625 -7.3125 C 1.140625 -8.789062 1.4375 -10.085938 2.03125 -11.203125 C 2.632812 -12.328125 3.460938 -13.195312 4.515625 -13.8125 C 5.566406 -14.4375 6.738281 -14.75 8.03125 -14.75 C 9.300781 -14.75 10.398438 -14.472656 11.328125 -13.921875 C 12.265625 -13.378906 12.960938 -12.691406 13.421875 -11.859375 L 13.421875 -14.515625 L 15.859375 -14.515625 L 15.859375 0 L 13.421875 0 L 13.421875 -2.703125 C 12.953125 -1.859375 12.242188 -1.15625 11.296875 -0.59375 C 10.347656 -0.0390625 9.25 0.234375 8 0.234375 C 6.707031 0.234375 5.539062 -0.0820312 4.5 -0.71875 C 3.457031 -1.351562 2.632812 -2.242188 2.03125 -3.390625 C 1.4375 -4.535156 1.140625 -5.84375 1.140625 -7.3125 Z M 13.421875 -7.28125 C 13.421875 -8.375 13.203125 -9.328125 12.765625 -10.140625 C 12.328125 -10.953125 11.734375 -11.570312 10.984375 -12 C 10.234375 -12.4375 9.40625 -12.65625 8.5 -12.65625 C 7.601562 -12.65625 6.78125 -12.441406 6.03125 -12.015625 C 5.289062 -11.597656 4.703125 -10.984375 4.265625 -10.171875 C 3.828125 -9.359375 3.609375 -8.40625 3.609375 -7.3125 C 3.609375 -6.195312 3.828125 -5.226562 4.265625 -4.40625 C 4.703125 -3.582031 5.289062 -2.953125 6.03125 -2.515625 C 6.78125 -2.085938 7.601562 -1.875 8.5 -1.875 C 9.40625 -1.875 10.234375 -2.085938 10.984375 -2.515625 C 11.734375 -2.953125 12.328125 -3.582031 12.765625 -4.40625 C 13.203125 -5.226562 13.421875 -6.1875 13.421875 -7.28125 Z M 13.421875 -7.28125 "/></g></g></g><g fill="#547b60" fill-opacity="1"><g transform="translate(416.239235, 28.012597)"><g><path d="M 4.453125 -19.59375 L 4.453125 0 L 2.046875 0 L 2.046875 -19.59375 Z M 4.453125 -19.59375 "/></g></g></g><g fill="#547b60" fill-opacity="1"><g transform="translate(425.372344, 28.012597)"><g/></g></g><g fill="#547b60" fill-opacity="1"><g transform="translate(435.061272, 28.012597)"><g><path d="M 4.984375 -12.53125 L 4.984375 -3.96875 C 4.984375 -3.257812 5.128906 -2.757812 5.421875 -2.46875 C 5.722656 -2.1875 6.242188 -2.046875 6.984375 -2.046875 L 8.765625 -2.046875 L 8.765625 0 L 6.59375 0 C 5.25 0 4.238281 -0.304688 3.5625 -0.921875 C 2.894531 -1.546875 2.5625 -2.5625 2.5625 -3.96875 L 2.5625 -12.53125 L 0.6875 -12.53125 L 0.6875 -14.515625 L 2.5625 -14.515625 L 2.5625 -18.171875 L 4.984375 -18.171875 L 4.984375 -14.515625 L 8.765625 -14.515625 L 8.765625 -12.53125 Z M 4.984375 -12.53125 "/></g></g></g><g fill="#547b60" fill-opacity="1"><g transform="translate(447.317619, 28.012597)"><g><path d="M 8.375 0.234375 C 7.007812 0.234375 5.773438 -0.0703125 4.671875 -0.6875 C 3.566406 -1.300781 2.703125 -2.175781 2.078125 -3.3125 C 1.453125 -4.457031 1.140625 -5.78125 1.140625 -7.28125 C 1.140625 -8.769531 1.460938 -10.082031 2.109375 -11.21875 C 2.753906 -12.351562 3.628906 -13.222656 4.734375 -13.828125 C 5.847656 -14.441406 7.09375 -14.75 8.46875 -14.75 C 9.851562 -14.75 11.097656 -14.441406 12.203125 -13.828125 C 13.316406 -13.222656 14.195312 -12.351562 14.84375 -11.21875 C 15.488281 -10.09375 15.8125 -8.78125 15.8125 -7.28125 C 15.8125 -5.78125 15.476562 -4.457031 14.8125 -3.3125 C 14.15625 -2.175781 13.257812 -1.300781 12.125 -0.6875 C 11 -0.0703125 9.75 0.234375 8.375 0.234375 Z M 8.375 -1.875 C 9.238281 -1.875 10.046875 -2.078125 10.796875 -2.484375 C 11.554688 -2.890625 12.171875 -3.5 12.640625 -4.3125 C 13.109375 -5.125 13.34375 -6.113281 13.34375 -7.28125 C 13.34375 -8.445312 13.113281 -9.4375 12.65625 -10.25 C 12.195312 -11.0625 11.597656 -11.664062 10.859375 -12.0625 C 10.117188 -12.457031 9.316406 -12.65625 8.453125 -12.65625 C 7.566406 -12.65625 6.753906 -12.457031 6.015625 -12.0625 C 5.285156 -11.664062 4.703125 -11.0625 4.265625 -10.25 C 3.828125 -9.4375 3.609375 -8.445312 3.609375 -7.28125 C 3.609375 -6.101562 3.820312 -5.109375 4.25 -4.296875 C 4.6875 -3.484375 5.265625 -2.875 5.984375 -2.46875 C 6.710938 -2.070312 7.507812 -1.875 8.375 -1.875 Z M 8.375 -1.875 "/></g></g></g><g fill="#547b60" fill-opacity="1"><g transform="translate(466.879147, 28.012597)"><g><path d="M 8.375 0.234375 C 7.007812 0.234375 5.773438 -0.0703125 4.671875 -0.6875 C 3.566406 -1.300781 2.703125 -2.175781 2.078125 -3.3125 C 1.453125 -4.457031 1.140625 -5.78125 1.140625 -7.28125 C 1.140625 -8.769531 1.460938 -10.082031 2.109375 -11.21875 C 2.753906 -12.351562 3.628906 -13.222656 4.734375 -13.828125 C 5.847656 -14.441406 7.09375 -14.75 8.46875 -14.75 C 9.851562 -14.75 11.097656 -14.441406 12.203125 -13.828125 C 13.316406 -13.222656 14.195312 -12.351562 14.84375 -11.21875 C 15.488281 -10.09375 15.8125 -8.78125 15.8125 -7.28125 C 15.8125 -5.78125 15.476562 -4.457031 14.8125 -3.3125 C 14.15625 -2.175781 13.257812 -1.300781 12.125 -0.6875 C 11 -0.0703125 9.75 0.234375 8.375 0.234375 Z M 8.375 -1.875 C 9.238281 -1.875 10.046875 -2.078125 10.796875 -2.484375 C 11.554688 -2.890625 12.171875 -3.5 12.640625 -4.3125 C 13.109375 -5.125 13.34375 -6.113281 13.34375 -7.28125 C 13.34375 -8.445312 13.113281 -9.4375 12.65625 -10.25 C 12.195312 -11.0625 11.597656 -11.664062 10.859375 -12.0625 C 10.117188 -12.457031 9.316406 -12.65625 8.453125 -12.65625 C 7.566406 -12.65625 6.753906 -12.457031 6.015625 -12.0625 C 5.285156 -11.664062 4.703125 -11.0625 4.265625 -10.25 C 3.828125 -9.4375 3.609375 -8.445312 3.609375 -7.28125 C 3.609375 -6.101562 3.820312 -5.109375 4.25 -4.296875 C 4.6875 -3.484375 5.265625 -2.875 5.984375 -2.46875 C 6.710938 -2.070312 7.507812 -1.875 8.375 -1.875 Z M 8.375 -1.875 "/></g></g></g><g fill="#547b60" fill-opacity="1"><g transform="translate(486.440721, 28.012597)"><g><path d="M 4.453125 -19.59375 L 4.453125 0 L 2.046875 0 L 2.046875 -19.59375 Z M 4.453125 -19.59375 "/></g></g></g><g fill="#547b60" fill-opacity="1"><g transform="translate(495.573785, 28.012597)"><g><path d="M 7.171875 0.234375 C 6.066406 0.234375 5.070312 0.046875 4.1875 -0.328125 C 3.300781 -0.710938 2.601562 -1.242188 2.09375 -1.921875 C 1.582031 -2.597656 1.300781 -3.378906 1.25 -4.265625 L 3.734375 -4.265625 C 3.804688 -3.535156 4.144531 -2.941406 4.75 -2.484375 C 5.363281 -2.023438 6.164062 -1.796875 7.15625 -1.796875 C 8.070312 -1.796875 8.789062 -2 9.3125 -2.40625 C 9.84375 -2.8125 10.109375 -3.328125 10.109375 -3.953125 C 10.109375 -4.585938 9.828125 -5.054688 9.265625 -5.359375 C 8.703125 -5.671875 7.828125 -5.976562 6.640625 -6.28125 C 5.566406 -6.5625 4.691406 -6.847656 4.015625 -7.140625 C 3.335938 -7.429688 2.753906 -7.863281 2.265625 -8.4375 C 1.773438 -9.007812 1.53125 -9.765625 1.53125 -10.703125 C 1.53125 -11.441406 1.75 -12.117188 2.1875 -12.734375 C 2.632812 -13.359375 3.265625 -13.847656 4.078125 -14.203125 C 4.890625 -14.566406 5.816406 -14.75 6.859375 -14.75 C 8.460938 -14.75 9.757812 -14.34375 10.75 -13.53125 C 11.738281 -12.71875 12.269531 -11.609375 12.34375 -10.203125 L 9.9375 -10.203125 C 9.882812 -10.953125 9.578125 -11.554688 9.015625 -12.015625 C 8.460938 -12.484375 7.71875 -12.71875 6.78125 -12.71875 C 5.914062 -12.71875 5.226562 -12.53125 4.71875 -12.15625 C 4.207031 -11.78125 3.953125 -11.296875 3.953125 -10.703125 C 3.953125 -10.222656 4.101562 -9.828125 4.40625 -9.515625 C 4.71875 -9.210938 5.109375 -8.96875 5.578125 -8.78125 C 6.046875 -8.59375 6.691406 -8.382812 7.515625 -8.15625 C 8.554688 -7.875 9.40625 -7.59375 10.0625 -7.3125 C 10.71875 -7.039062 11.28125 -6.628906 11.75 -6.078125 C 12.21875 -5.535156 12.457031 -4.828125 12.46875 -3.953125 C 12.46875 -3.148438 12.25 -2.429688 11.8125 -1.796875 C 11.375 -1.160156 10.75 -0.660156 9.9375 -0.296875 C 9.132812 0.0546875 8.210938 0.234375 7.171875 0.234375 Z M 7.171875 0.234375 "/></g></g></g><g fill="#547b60" fill-opacity="1"><g transform="translate(512.012122, 28.012597)"><g/></g></g><g fill="#547b60" fill-opacity="1"><g transform="translate(521.701049, 28.012597)"><g><path d="M 4.453125 -18.453125 L 4.453125 0 L 2.046875 0 L 2.046875 -18.453125 Z M 4.453125 -18.453125 "/></g></g></g><g fill="#547b60" fill-opacity="1"><g transform="translate(530.834113, 28.012597)"><g><path d="M 2.40625 -18.453125 L 5.078125 -18.453125 L 2.546875 -12.453125 L 0.84375 -12.453125 Z M 2.40625 -18.453125 "/></g></g></g><g fill="#547b60" fill-opacity="1"><g transform="translate(539.252574, 28.012597)"><g><path d="M 7.4375 -2.21875 L 11.9375 -14.515625 L 14.515625 -14.515625 L 8.8125 0 L 6.015625 0 L 0.3125 -14.515625 L 2.90625 -14.515625 Z M 7.4375 -2.21875 "/></g></g></g><g fill="#547b60" fill-opacity="1"><g transform="translate(556.72313, 28.012597)"><g><path d="M 15.28125 -7.8125 C 15.28125 -7.351562 15.253906 -6.867188 15.203125 -6.359375 L 3.609375 -6.359375 C 3.691406 -4.929688 4.175781 -3.8125 5.0625 -3 C 5.957031 -2.195312 7.039062 -1.796875 8.3125 -1.796875 C 9.351562 -1.796875 10.222656 -2.035156 10.921875 -2.515625 C 11.617188 -3.003906 12.109375 -3.65625 12.390625 -4.46875 L 14.984375 -4.46875 C 14.597656 -3.082031 13.820312 -1.953125 12.65625 -1.078125 C 11.488281 -0.203125 10.039062 0.234375 8.3125 0.234375 C 6.9375 0.234375 5.707031 -0.0703125 4.625 -0.6875 C 3.539062 -1.300781 2.6875 -2.175781 2.0625 -3.3125 C 1.445312 -4.457031 1.140625 -5.78125 1.140625 -7.28125 C 1.140625 -8.78125 1.4375 -10.09375 2.03125 -11.21875 C 2.632812 -12.351562 3.476562 -13.222656 4.5625 -13.828125 C 5.65625 -14.441406 6.90625 -14.75 8.3125 -14.75 C 9.6875 -14.75 10.90625 -14.445312 11.96875 -13.84375 C 13.03125 -13.25 13.847656 -12.425781 14.421875 -11.375 C 14.992188 -10.320312 15.28125 -9.132812 15.28125 -7.8125 Z M 12.796875 -8.3125 C 12.796875 -9.226562 12.59375 -10.015625 12.1875 -10.671875 C 11.78125 -11.335938 11.226562 -11.84375 10.53125 -12.1875 C 9.832031 -12.539062 9.054688 -12.71875 8.203125 -12.71875 C 6.984375 -12.71875 5.945312 -12.328125 5.09375 -11.546875 C 4.238281 -10.765625 3.75 -9.6875 3.625 -8.3125 Z M 12.796875 -8.3125 "/></g></g></g><g fill="#547b60" fill-opacity="1"><g transform="translate(0.757096, 69.164382)"><g><path d="M 19.5 -14.78125 C 20.625 -14.78125 21.628906 -14.546875 22.515625 -14.078125 C 23.398438 -13.609375 24.097656 -12.90625 24.609375 -11.96875 C 25.117188 -11.03125 25.375 -9.890625 25.375 -8.546875 L 25.375 0 L 22.984375 0 L 22.984375 -8.203125 C 22.984375 -9.648438 22.625 -10.757812 21.90625 -11.53125 C 21.195312 -12.300781 20.234375 -12.6875 19.015625 -12.6875 C 17.765625 -12.6875 16.765625 -12.285156 16.015625 -11.484375 C 15.273438 -10.679688 14.90625 -9.519531 14.90625 -8 L 14.90625 0 L 12.53125 0 L 12.53125 -8.203125 C 12.53125 -9.648438 12.171875 -10.757812 11.453125 -11.53125 C 10.734375 -12.300781 9.765625 -12.6875 8.546875 -12.6875 C 7.296875 -12.6875 6.300781 -12.285156 5.5625 -11.484375 C 4.820312 -10.679688 4.453125 -9.519531 4.453125 -8 L 4.453125 0 L 2.046875 0 L 2.046875 -14.515625 L 4.453125 -14.515625 L 4.453125 -12.421875 C 4.929688 -13.179688 5.570312 -13.765625 6.375 -14.171875 C 7.175781 -14.578125 8.0625 -14.78125 9.03125 -14.78125 C 10.25 -14.78125 11.328125 -14.503906 12.265625 -13.953125 C 13.203125 -13.410156 13.898438 -12.609375 14.359375 -11.546875 C 14.765625 -12.566406 15.429688 -13.359375 16.359375 -13.921875 C 17.296875 -14.492188 18.34375 -14.78125 19.5 -14.78125 Z M 19.5 -14.78125 "/></g></g></g><g fill="#547b60" fill-opacity="1"><g transform="translate(30.641232, 69.164382)"><g><path d="M 1.140625 -7.3125 C 1.140625 -8.789062 1.4375 -10.085938 2.03125 -11.203125 C 2.632812 -12.328125 3.460938 -13.195312 4.515625 -13.8125 C 5.566406 -14.4375 6.738281 -14.75 8.03125 -14.75 C 9.300781 -14.75 10.398438 -14.472656 11.328125 -13.921875 C 12.265625 -13.378906 12.960938 -12.691406 13.421875 -11.859375 L 13.421875 -14.515625 L 15.859375 -14.515625 L 15.859375 0 L 13.421875 0 L 13.421875 -2.703125 C 12.953125 -1.859375 12.242188 -1.15625 11.296875 -0.59375 C 10.347656 -0.0390625 9.25 0.234375 8 0.234375 C 6.707031 0.234375 5.539062 -0.0820312 4.5 -0.71875 C 3.457031 -1.351562 2.632812 -2.242188 2.03125 -3.390625 C 1.4375 -4.535156 1.140625 -5.84375 1.140625 -7.3125 Z M 13.421875 -7.28125 C 13.421875 -8.375 13.203125 -9.328125 12.765625 -10.140625 C 12.328125 -10.953125 11.734375 -11.570312 10.984375 -12 C 10.234375 -12.4375 9.40625 -12.65625 8.5 -12.65625 C 7.601562 -12.65625 6.78125 -12.441406 6.03125 -12.015625 C 5.289062 -11.597656 4.703125 -10.984375 4.265625 -10.171875 C 3.828125 -9.359375 3.609375 -8.40625 3.609375 -7.3125 C 3.609375 -6.195312 3.828125 -5.226562 4.265625 -4.40625 C 4.703125 -3.582031 5.289062 -2.953125 6.03125 -2.515625 C 6.78125 -2.085938 7.601562 -1.875 8.5 -1.875 C 9.40625 -1.875 10.234375 -2.085938 10.984375 -2.515625 C 11.734375 -2.953125 12.328125 -3.582031 12.765625 -4.40625 C 13.203125 -5.226562 13.421875 -6.1875 13.421875 -7.28125 Z M 13.421875 -7.28125 "/></g></g></g><g fill="#547b60" fill-opacity="1"><g transform="translate(51.155633, 69.164382)"><g><path d="M 1.140625 -7.3125 C 1.140625 -8.789062 1.4375 -10.085938 2.03125 -11.203125 C 2.632812 -12.328125 3.460938 -13.195312 4.515625 -13.8125 C 5.566406 -14.4375 6.742188 -14.75 8.046875 -14.75 C 9.179688 -14.75 10.234375 -14.488281 11.203125 -13.96875 C 12.171875 -13.445312 12.910156 -12.765625 13.421875 -11.921875 L 13.421875 -19.59375 L 15.859375 -19.59375 L 15.859375 0 L 13.421875 0 L 13.421875 -2.734375 C 12.953125 -1.867188 12.25 -1.15625 11.3125 -0.59375 C 10.375 -0.0390625 9.28125 0.234375 8.03125 0.234375 C 6.738281 0.234375 5.566406 -0.0820312 4.515625 -0.71875 C 3.460938 -1.351562 2.632812 -2.242188 2.03125 -3.390625 C 1.4375 -4.535156 1.140625 -5.84375 1.140625 -7.3125 Z M 13.421875 -7.28125 C 13.421875 -8.375 13.203125 -9.328125 12.765625 -10.140625 C 12.328125 -10.953125 11.734375 -11.570312 10.984375 -12 C 10.234375 -12.4375 9.40625 -12.65625 8.5 -12.65625 C 7.601562 -12.65625 6.78125 -12.441406 6.03125 -12.015625 C 5.289062 -11.597656 4.703125 -10.984375 4.265625 -10.171875 C 3.828125 -9.359375 3.609375 -8.40625 3.609375 -7.3125 C 3.609375 -6.195312 3.828125 -5.226562 4.265625 -4.40625 C 4.703125 -3.582031 5.289062 -2.953125 6.03125 -2.515625 C 6.78125 -2.085938 7.601562 -1.875 8.5 -1.875 C 9.40625 -1.875 10.234375 -2.085938 10.984375 -2.515625 C 11.734375 -2.953125 12.328125 -3.582031 12.765625 -4.40625 C 13.203125 -5.226562 13.421875 -6.1875 13.421875 -7.28125 Z M 13.421875 -7.28125 "/></g></g></g><g fill="#547b60" fill-opacity="1"><g transform="translate(71.670034, 69.164382)"><g><path d="M 15.28125 -7.8125 C 15.28125 -7.351562 15.253906 -6.867188 15.203125 -6.359375 L 3.609375 -6.359375 C 3.691406 -4.929688 4.175781 -3.8125 5.0625 -3 C 5.957031 -2.195312 7.039062 -1.796875 8.3125 -1.796875 C 9.351562 -1.796875 10.222656 -2.035156 10.921875 -2.515625 C 11.617188 -3.003906 12.109375 -3.65625 12.390625 -4.46875 L 14.984375 -4.46875 C 14.597656 -3.082031 13.820312 -1.953125 12.65625 -1.078125 C 11.488281 -0.203125 10.039062 0.234375 8.3125 0.234375 C 6.9375 0.234375 5.707031 -0.0703125 4.625 -0.6875 C 3.539062 -1.300781 2.6875 -2.175781 2.0625 -3.3125 C 1.445312 -4.457031 1.140625 -5.78125 1.140625 -7.28125 C 1.140625 -8.78125 1.4375 -10.09375 2.03125 -11.21875 C 2.632812 -12.351562 3.476562 -13.222656 4.5625 -13.828125 C 5.65625 -14.441406 6.90625 -14.75 8.3125 -14.75 C 9.6875 -14.75 10.90625 -14.445312 11.96875 -13.84375 C 13.03125 -13.25 13.847656 -12.425781 14.421875 -11.375 C 14.992188 -10.320312 15.28125 -9.132812 15.28125 -7.8125 Z M 12.796875 -8.3125 C 12.796875 -9.226562 12.59375 -10.015625 12.1875 -10.671875 C 11.78125 -11.335938 11.226562 -11.84375 10.53125 -12.1875 C 9.832031 -12.539062 9.054688 -12.71875 8.203125 -12.71875 C 6.984375 -12.71875 5.945312 -12.328125 5.09375 -11.546875 C 4.238281 -10.765625 3.75 -9.6875 3.625 -8.3125 Z M 12.796875 -8.3125 "/></g></g></g><g fill="#547b60" fill-opacity="1"><g transform="translate(90.70222, 69.164382)"><g><path d="M 5.171875 -18.453125 L 4.875 -5.21875 L 2.859375 -5.21875 L 2.5625 -18.453125 Z M 3.96875 0.15625 C 3.507812 0.15625 3.117188 0 2.796875 -0.3125 C 2.484375 -0.632812 2.328125 -1.023438 2.328125 -1.484375 C 2.328125 -1.941406 2.484375 -2.328125 2.796875 -2.640625 C 3.117188 -2.960938 3.507812 -3.125 3.96875 -3.125 C 4.414062 -3.125 4.789062 -2.960938 5.09375 -2.640625 C 5.40625 -2.328125 5.5625 -1.941406 5.5625 -1.484375 C 5.5625 -1.023438 5.40625 -0.632812 5.09375 -0.3125 C 4.789062 0 4.414062 0.15625 3.96875 0.15625 Z M 3.96875 0.15625 "/></g></g></g></g></g></g><g clip-path="url(#8f17fcfb54)"><g transform="matrix(1, 0, 0, 1, 0, -0.000000000000028422)"><g clip-path="url(#c145431988)"><g fill="#18375d" fill-opacity="1"><g transform="translate(0.757096, 51.150802)"><g><path d="M 12.71875 -48.109375 C 16.351562 -48.109375 19.03125 -47.03125 20.75 -44.875 C 22.476562 -42.71875 23.34375 -39.828125 23.34375 -36.203125 L 23.34375 -34.90625 L 18.296875 -34.90625 L 18.296875 -36.46875 C 18.296875 -38.644531 17.863281 -40.320312 17 -41.5 C 16.144531 -42.6875 14.765625 -43.28125 12.859375 -43.28125 C 10.953125 -43.28125 9.566406 -42.6875 8.703125 -41.5 C 7.847656 -40.320312 7.421875 -38.671875 7.421875 -36.546875 C 7.421875 -34.773438 7.816406 -33.226562 8.609375 -31.90625 C 9.398438 -30.59375 10.382812 -29.378906 11.5625 -28.265625 C 12.75 -27.160156 14.03125 -26.070312 15.40625 -25 C 16.789062 -23.9375 18.070312 -22.769531 19.25 -21.5 C 20.4375 -20.226562 21.425781 -18.785156 22.21875 -17.171875 C 23.007812 -15.566406 23.40625 -13.65625 23.40625 -11.4375 C 23.40625 -7.800781 22.53125 -4.90625 20.78125 -2.75 C 19.039062 -0.601562 16.332031 0.46875 12.65625 0.46875 C 8.976562 0.46875 6.273438 -0.601562 4.546875 -2.75 C 2.828125 -4.90625 1.96875 -7.800781 1.96875 -11.4375 L 1.96875 -14.15625 L 6.9375 -14.15625 L 6.9375 -11.15625 C 6.9375 -8.976562 7.390625 -7.300781 8.296875 -6.125 C 9.203125 -4.945312 10.609375 -4.359375 12.515625 -4.359375 C 14.421875 -4.359375 15.828125 -4.945312 16.734375 -6.125 C 17.640625 -7.300781 18.09375 -8.976562 18.09375 -11.15625 C 18.09375 -12.925781 17.695312 -14.457031 16.90625 -15.75 C 16.113281 -17.039062 15.128906 -18.242188 13.953125 -19.359375 C 12.773438 -20.472656 11.503906 -21.5625 10.140625 -22.625 C 8.773438 -23.6875 7.503906 -24.851562 6.328125 -26.125 C 5.148438 -27.394531 4.160156 -28.832031 3.359375 -30.4375 C 2.566406 -32.050781 2.171875 -33.972656 2.171875 -36.203125 C 2.171875 -39.878906 3.03125 -42.78125 4.75 -44.90625 C 6.476562 -47.039062 9.132812 -48.109375 12.71875 -48.109375 Z M 12.71875 -48.109375 "/></g></g></g><g fill="#18375d" fill-opacity="1"><g transform="translate(33.961342, 51.150802)"><g><path d="M 9.65625 0 L 9.65625 -42.796875 L 0.890625 -42.796875 L 0.890625 -47.625 L 23.75 -47.625 L 23.75 -42.796875 L 14.96875 -42.796875 L 14.96875 0 Z M 9.65625 0 "/></g></g></g><g fill="#18375d" fill-opacity="1"><g transform="translate(66.553222, 51.150802)"><g><path d="M 7.75 -11.234375 C 7.75 -9.054688 8.191406 -7.363281 9.078125 -6.15625 C 9.960938 -4.957031 11.382812 -4.359375 13.34375 -4.359375 C 15.238281 -4.359375 16.628906 -4.957031 17.515625 -6.15625 C 18.398438 -7.363281 18.84375 -9.054688 18.84375 -11.234375 L 18.84375 -47.625 L 23.8125 -47.625 L 23.8125 -11.5 C 23.8125 -7.875 22.945312 -4.957031 21.21875 -2.75 C 19.5 -0.550781 16.804688 0.546875 13.140625 0.546875 C 9.503906 0.546875 6.820312 -0.550781 5.09375 -2.75 C 3.375 -4.957031 2.515625 -7.875 2.515625 -11.5 L 2.515625 -47.625 L 7.75 -47.625 Z M 7.75 -11.234375 "/></g></g></g><g fill="#18375d" fill-opacity="1"><g transform="translate(100.778076, 51.150802)"><g><path d="M 18.984375 -25.453125 L 18.984375 -20.625 L 8.03125 -20.625 L 8.03125 0 L 2.71875 0 L 2.71875 -47.625 L 21.640625 -47.625 L 21.640625 -42.796875 L 8.03125 -42.796875 L 8.03125 -25.453125 Z M 18.984375 -25.453125 "/></g></g></g><g fill="#18375d" fill-opacity="1"><g transform="translate(131.805016, 51.150802)"><g><path d="M 18.984375 -25.453125 L 18.984375 -20.625 L 8.03125 -20.625 L 8.03125 0 L 2.71875 0 L 2.71875 -47.625 L 21.640625 -47.625 L 21.640625 -42.796875 L 8.03125 -42.796875 L 8.03125 -25.453125 Z M 18.984375 -25.453125 "/></g></g></g><g fill="#18375d" fill-opacity="1"><g transform="translate(162.831955, 51.150802)"><g/></g></g><g fill="#18375d" fill-opacity="1"><g transform="translate(181.271345, 51.150802)"><g><path d="M 8.03125 -47.625 L 8.03125 0 L 2.71875 0 L 2.71875 -47.625 Z M 8.03125 -47.625 "/></g></g></g><g fill="#18375d" fill-opacity="1"><g transform="translate(199.914845, 51.150802)"><g><path d="M 5.515625 -35.046875 L 3.328125 -35.046875 L 5.03125 -41.03125 L 3.0625 -41.03125 L 3.0625 -47.625 L 8.171875 -47.625 L 8.171875 -41.578125 Z M 5.515625 -35.046875 "/></g></g></g><g fill="#18375d" fill-opacity="1"><g transform="translate(218.694456, 51.150802)"><g><path d="M 6.734375 -47.625 L 14.5 -6.1875 L 22.1875 -47.625 L 27.078125 -47.625 L 18.171875 0 L 10.34375 0 L 1.359375 -47.625 Z M 6.734375 -47.625 "/></g></g></g><g fill="#18375d" fill-opacity="1"><g transform="translate(255.028561, 51.150802)"><g><path d="M 19.671875 -26.53125 L 19.671875 -21.78125 L 8.03125 -21.78125 L 8.03125 -4.828125 L 22.3125 -4.828125 L 22.3125 0 L 2.71875 0 L 2.71875 -47.625 L 22.3125 -47.625 L 22.3125 -42.796875 L 8.03125 -42.796875 L 8.03125 -26.53125 Z M 19.671875 -26.53125 "/></g></g></g><g fill="#18375d" fill-opacity="1"><g transform="translate(287.41632, 51.150802)"><g/></g></g><g fill="#18375d" fill-opacity="1"><g transform="translate(305.855709, 51.150802)"><g><path d="M 13.875 -47.625 C 17.601562 -47.625 20.335938 -46.566406 22.078125 -44.453125 C 23.828125 -42.347656 24.703125 -39.460938 24.703125 -35.796875 L 24.703125 -11.765625 C 24.703125 -8.097656 23.828125 -5.21875 22.078125 -3.125 C 20.335938 -1.039062 17.601562 0 13.875 0 L 2.71875 0 L 2.71875 -47.625 Z M 13.8125 -4.828125 C 15.71875 -4.828125 17.132812 -5.40625 18.0625 -6.5625 C 19 -7.71875 19.46875 -9.382812 19.46875 -11.5625 L 19.46875 -36.0625 C 19.46875 -38.238281 19 -39.90625 18.0625 -41.0625 C 17.132812 -42.21875 15.695312 -42.796875 13.75 -42.796875 L 8.03125 -42.796875 L 8.03125 -4.828125 Z M 13.8125 -4.828125 "/></g></g></g><g fill="#18375d" fill-opacity="1"><g transform="translate(340.692929, 51.150802)"><g><path d="M 2.3125 -36.140625 C 2.3125 -39.804688 3.207031 -42.71875 5 -44.875 C 6.789062 -47.03125 9.523438 -48.109375 13.203125 -48.109375 C 16.878906 -48.109375 19.625 -47.03125 21.4375 -44.875 C 23.25 -42.71875 24.15625 -39.804688 24.15625 -36.140625 L 24.15625 -11.5 C 24.15625 -7.875 23.25 -4.972656 21.4375 -2.796875 C 19.625 -0.617188 16.878906 0.46875 13.203125 0.46875 C 9.523438 0.46875 6.789062 -0.617188 5 -2.796875 C 3.207031 -4.972656 2.3125 -7.875 2.3125 -11.5 Z M 7.546875 -11.234375 C 7.546875 -9.054688 8.007812 -7.363281 8.9375 -6.15625 C 9.875 -4.957031 11.296875 -4.359375 13.203125 -4.359375 C 15.148438 -4.359375 16.578125 -4.957031 17.484375 -6.15625 C 18.390625 -7.363281 18.84375 -9.054688 18.84375 -11.234375 L 18.84375 -36.40625 C 18.84375 -38.582031 18.390625 -40.269531 17.484375 -41.46875 C 16.578125 -42.675781 15.148438 -43.28125 13.203125 -43.28125 C 11.296875 -43.28125 9.875 -42.675781 8.9375 -41.46875 C 8.007812 -40.269531 7.546875 -38.582031 7.546875 -36.40625 Z M 7.546875 -11.234375 "/></g></g></g><g fill="#18375d" fill-opacity="1"><g transform="translate(375.053861, 51.150802)"><g><path d="M 7.421875 0 L 2.65625 0 L 2.65625 -47.625 L 9.390625 -47.625 L 20.40625 -13.203125 L 20.40625 -47.625 L 25.109375 -47.625 L 25.109375 0 L 19.59375 0 L 7.421875 -38.515625 Z M 7.421875 0 "/></g></g></g><g fill="#18375d" fill-opacity="1"><g transform="translate(410.775589, 51.150802)"><g><path d="M 19.671875 -26.53125 L 19.671875 -21.78125 L 8.03125 -21.78125 L 8.03125 -4.828125 L 22.3125 -4.828125 L 22.3125 0 L 2.71875 0 L 2.71875 -47.625 L 22.3125 -47.625 L 22.3125 -42.796875 L 8.03125 -42.796875 L 8.03125 -26.53125 Z M 19.671875 -26.53125 "/></g></g></g><g fill="#18375d" fill-opacity="1"><g transform="translate(443.163348, 51.150802)"><g><path d="M 2.71875 -25.25 L 2.71875 -47.625 L 8.03125 -47.625 L 8.03125 -25.25 L 7.34375 -10.546875 L 3.40625 -10.546875 Z M 7.890625 -6.59375 L 7.890625 0 L 2.796875 0 L 2.796875 -6.59375 Z M 7.890625 -6.59375 "/></g></g></g></g></g></g></g></g></svg>