<svg xmlns="http://www.w3.org/2000/svg" xmlns:xlink="http://www.w3.org/1999/xlink" width="1075" zoomAndPan="magnify" viewBox="0 0 806.25 651.000003" height="868" preserveAspectRatio="xMidYMid meet" version="1.0"><path fill="#18375d" d="M 132.585938 41.082031 L 132.585938 268.765625 C 132.585938 268.765625 89.683594 241.070312 44.054688 268.765625 C 44.054688 268.765625 1.152344 283.292969 3.195312 334.59375 C 3.195312 334.59375 12.5 375.453125 75.609375 374.546875 C 75.609375 374.546875 141.890625 370.6875 153.695312 307.808594 L 153.695312 111.679688 L 331.4375 77.855469 L 331.4375 232.21875 C 331.4375 232.21875 293.757812 206.792969 242 232.21875 C 242 232.21875 199.097656 250.605469 201.59375 294.871094 C 201.59375 294.871094 205 334.820312 267.425781 337.320312 C 267.425781 337.320312 338.019531 338.679688 352.550781 274.210938 L 352.550781 1.585938 Z M 132.585938 41.082031 " fill-opacity="1" fill-rule="nonzero"/><path fill="#18375d" d="M 73.566406 375.679688 C 12.273438 375.679688 2.058594 335.277344 2.058594 334.820312 C 0.242188 284.425781 41.105469 268.539062 43.601562 267.628906 C 84.007812 243.113281 122.824219 261.953125 131.449219 266.722656 L 131.449219 40.175781 L 132.359375 39.945312 L 353.910156 0.222656 L 353.910156 274.210938 C 339.382812 338.90625 268.332031 338.226562 267.652344 338.226562 C 204.773438 335.957031 200.6875 295.324219 200.6875 294.871094 C 198.414062 250.378906 241.320312 231.308594 241.773438 231.082031 C 287.171875 208.835938 322.359375 225.632812 330.53125 230.175781 L 330.53125 79.21875 L 155.058594 112.585938 L 155.058594 307.808594 C 143.253906 371.140625 76.515625 375.679688 75.835938 375.679688 C 74.925781 375.679688 74.246094 375.679688 73.566406 375.679688 Z M 87.183594 257.640625 C 74.246094 257.640625 59.492188 260.59375 44.734375 269.671875 L 44.507812 269.671875 C 44.054688 269.898438 2.515625 284.652344 4.328125 334.367188 C 4.328125 334.59375 14.316406 374.320312 75.609375 373.183594 C 76.289062 373.183594 141.210938 368.644531 152.5625 307.355469 L 152.5625 110.542969 L 332.574219 76.265625 L 332.574219 234.03125 L 330.757812 232.898438 C 330.304688 232.671875 293.074219 208.15625 242.453125 232.898438 C 242 233.125 200.230469 251.511719 202.730469 294.414062 C 202.957031 296.003906 206.816406 333.460938 267.425781 335.730469 C 268.105469 335.730469 337.113281 336.410156 351.414062 273.757812 L 351.414062 2.945312 L 133.492188 41.988281 L 133.492188 270.808594 L 131.675781 269.671875 C 131.675781 269.671875 112.835938 257.640625 87.183594 257.640625 Z M 87.183594 257.640625 " fill-opacity="1" fill-rule="nonzero"/><path fill="#18375d" d="M 153.695312 148.453125 C 150.066406 148.453125 146.660156 145.957031 145.976562 142.097656 C 145.070312 137.785156 147.792969 133.699219 152.109375 132.789062 L 329.847656 95.789062 C 334.164062 94.882812 338.25 97.605469 339.15625 101.917969 C 340.0625 106.230469 337.339844 110.316406 333.027344 111.226562 L 155.285156 148.226562 C 154.832031 148.226562 154.378906 148.453125 153.695312 148.453125 Z M 153.695312 148.453125 " fill-opacity="1" fill-rule="nonzero"/><path fill="#18375d" d="M 730.546875 465.921875 C 730.898438 467.441406 731.144531 468.984375 731.28125 470.546875 C 731.417969 472.109375 731.449219 473.6875 731.371094 475.277344 C 731.292969 476.867188 731.109375 478.464844 730.8125 480.066406 C 730.519531 481.667969 730.121094 483.265625 729.617188 484.863281 C 729.109375 486.460938 728.5 488.050781 727.785156 489.628906 C 727.074219 491.207031 726.257812 492.769531 725.34375 494.3125 C 724.429688 495.859375 723.421875 497.378906 722.316406 498.875 C 721.210938 500.367188 720.011719 501.832031 718.726562 503.265625 C 717.4375 504.695312 716.066406 506.089844 714.613281 507.441406 C 713.15625 508.796875 711.621094 510.105469 710.011719 511.371094 C 708.398438 512.632812 706.71875 513.84375 704.96875 515.007812 C 703.21875 516.167969 701.410156 517.273438 699.535156 518.320312 C 697.664062 519.367188 695.738281 520.351562 693.761719 521.277344 C 691.785156 522.199219 689.765625 523.054688 687.703125 523.847656 C 685.640625 524.636719 683.546875 525.359375 681.417969 526.007812 C 679.289062 526.660156 677.140625 527.234375 674.96875 527.738281 C 672.792969 528.242188 670.609375 528.671875 668.414062 529.023438 C 666.214844 529.375 664.015625 529.648438 661.816406 529.847656 C 659.617188 530.042969 657.425781 530.164062 655.246094 530.203125 C 653.0625 530.242188 650.902344 530.207031 648.757812 530.089844 C 646.617188 529.972656 644.503906 529.777344 642.421875 529.503906 C 640.339844 529.230469 638.296875 528.882812 636.292969 528.457031 C 634.292969 528.027344 632.339844 527.527344 630.4375 526.953125 C 628.53125 526.378906 626.6875 525.730469 624.902344 525.011719 C 623.117188 524.289062 621.398438 523.503906 619.746094 522.648438 C 618.097656 521.789062 616.519531 520.871094 615.019531 519.886719 C 613.519531 518.898438 612.101562 517.855469 610.765625 516.75 C 609.433594 515.648438 608.1875 514.488281 607.027344 513.277344 C 605.871094 512.066406 604.808594 510.804688 603.839844 509.496094 C 602.871094 508.183594 602.003906 506.832031 601.234375 505.441406 C 600.464844 504.046875 599.796875 502.617188 599.234375 501.152344 C 598.671875 499.691406 598.210938 498.195312 597.859375 496.675781 C 597.507812 495.15625 597.261719 493.613281 597.125 492.050781 C 596.984375 490.488281 596.957031 488.910156 597.035156 487.320312 C 597.113281 485.730469 597.296875 484.132812 597.589844 482.53125 C 597.886719 480.929688 598.285156 479.332031 598.789062 477.734375 C 599.296875 476.136719 599.90625 474.546875 600.621094 472.96875 C 601.332031 471.390625 602.144531 469.828125 603.058594 468.285156 C 603.972656 466.738281 604.984375 465.21875 606.089844 463.722656 C 607.195312 462.230469 608.394531 460.765625 609.679688 459.332031 C 610.96875 457.902344 612.339844 456.507812 613.792969 455.15625 C 615.25 453.800781 616.785156 452.492188 618.394531 451.226562 C 620.003906 449.964844 621.6875 448.75 623.4375 447.589844 C 625.1875 446.429688 626.996094 445.324219 628.871094 444.277344 C 630.742188 443.230469 632.667969 442.246094 634.644531 441.320312 C 636.621094 440.398438 638.640625 439.542969 640.703125 438.75 C 642.765625 437.960938 644.859375 437.238281 646.988281 436.589844 C 649.117188 435.9375 651.265625 435.363281 653.4375 434.859375 C 655.613281 434.355469 657.796875 433.925781 659.992188 433.574219 C 662.191406 433.222656 664.390625 432.949219 666.589844 432.75 C 668.789062 432.554688 670.980469 432.433594 673.160156 432.394531 C 675.34375 432.355469 677.503906 432.390625 679.648438 432.507812 C 681.789062 432.625 683.902344 432.820312 685.984375 433.09375 C 688.066406 433.367188 690.109375 433.714844 692.113281 434.140625 C 694.113281 434.566406 696.066406 435.070312 697.96875 435.644531 C 699.875 436.21875 701.71875 436.867188 703.503906 437.585938 C 705.289062 438.304688 707.007812 439.09375 708.660156 439.949219 C 710.308594 440.808594 711.886719 441.726562 713.386719 442.710938 C 714.886719 443.695312 716.304688 444.742188 717.636719 445.84375 C 718.972656 446.949219 720.21875 448.109375 721.375 449.320312 C 722.535156 450.53125 723.597656 451.792969 724.566406 453.101562 C 725.53125 454.414062 726.402344 455.761719 727.171875 457.15625 C 727.941406 458.550781 728.609375 459.980469 729.171875 461.445312 C 729.734375 462.90625 730.195312 464.402344 730.546875 465.921875 Z M 730.546875 465.921875 " fill-opacity="1" fill-rule="nonzero"/><path fill="#18375d" d="M 653.78125 531.40625 C 625.40625 531.40625 601.796875 518.011719 596.800781 496.898438 C 590.671875 470.566406 616.097656 442.417969 653.097656 433.792969 C 690.328125 425.167969 725.511719 439.46875 731.414062 465.800781 C 737.542969 492.132812 712.117188 520.28125 675.117188 528.90625 C 667.855469 530.496094 660.589844 531.40625 653.78125 531.40625 Z M 674.890625 433.566406 C 668.082031 433.566406 661.042969 434.246094 653.78125 436.0625 C 617.6875 444.234375 593.171875 471.476562 599.074219 496.445312 C 604.972656 521.417969 638.796875 535.035156 674.664062 526.636719 C 710.53125 518.238281 735.046875 491.226562 729.371094 466.253906 C 724.832031 446.277344 702.132812 433.566406 674.890625 433.566406 Z M 674.890625 433.566406 " fill-opacity="1" fill-rule="nonzero"/><path fill="#18375d" d="M 725.058594 481.691406 C 725.058594 481.691406 724.832031 481.691406 724.832031 481.691406 C 720.519531 481.464844 717.113281 477.832031 717.113281 473.519531 L 727.78125 196.804688 C 727.78125 194.308594 729.144531 191.8125 731.414062 190.449219 C 733.683594 189.085938 736.179688 188.859375 738.679688 189.769531 C 762.058594 199.074219 804.507812 229.265625 798.832031 277.164062 C 798.378906 281.476562 794.292969 284.652344 789.980469 284.199219 C 785.667969 283.746094 782.488281 279.660156 782.945312 275.347656 C 787.257812 240.390625 759.109375 219.050781 743.21875 209.972656 L 733.003906 474.425781 C 732.777344 478.511719 729.371094 481.691406 725.058594 481.691406 Z M 725.058594 481.691406 " fill-opacity="1" fill-rule="nonzero"/><path fill="#18375d" d="M 444.9375 312.574219 L 449.707031 347.535156 L 503.503906 332.777344 L 498.964844 298.5 Z M 444.9375 312.574219 " fill-opacity="1" fill-rule="nonzero"/><path fill="#18375d" d="M 448.796875 348.894531 L 443.804688 311.894531 L 499.871094 297.140625 L 504.867188 333.6875 Z M 446.300781 313.484375 L 450.613281 345.945312 L 502.144531 331.871094 L 497.828125 299.863281 Z M 446.300781 313.484375 " fill-opacity="1" fill-rule="nonzero"/><path fill="#18375d" d="M 483.304688 560.738281 C 483.863281 562.050781 484.328125 563.402344 484.699219 564.785156 C 485.070312 566.171875 485.347656 567.585938 485.53125 569.03125 C 485.714844 570.472656 485.800781 571.9375 485.792969 573.425781 C 485.78125 574.914062 485.679688 576.417969 485.480469 577.933594 C 485.277344 579.449219 484.984375 580.976562 484.59375 582.507812 C 484.207031 584.039062 483.726562 585.574219 483.148438 587.105469 C 482.574219 588.640625 481.910156 590.164062 481.15625 591.683594 C 480.402344 593.203125 479.5625 594.707031 478.636719 596.195312 C 477.710938 597.6875 476.699219 599.152344 475.609375 600.601562 C 474.519531 602.046875 473.351562 603.464844 472.109375 604.855469 C 470.863281 606.242188 469.550781 607.597656 468.164062 608.914062 C 466.78125 610.234375 465.332031 611.511719 463.820312 612.746094 C 462.308594 613.980469 460.738281 615.167969 459.113281 616.308594 C 457.484375 617.449219 455.8125 618.535156 454.085938 619.570312 C 452.363281 620.605469 450.597656 621.578125 448.796875 622.496094 C 446.992188 623.414062 445.152344 624.269531 443.285156 625.0625 C 441.417969 625.855469 439.527344 626.582031 437.613281 627.242188 C 435.699219 627.902344 433.769531 628.492188 431.828125 629.015625 C 429.886719 629.535156 427.941406 629.984375 425.992188 630.363281 C 424.042969 630.738281 422.097656 631.042969 420.160156 631.273438 C 418.21875 631.503906 416.296875 631.65625 414.382812 631.738281 C 412.472656 631.816406 410.585938 631.820312 408.722656 631.75 C 406.859375 631.679688 405.03125 631.535156 403.234375 631.3125 C 401.433594 631.09375 399.679688 630.796875 397.960938 630.429688 C 396.246094 630.058594 394.582031 629.621094 392.964844 629.105469 C 391.347656 628.59375 389.789062 628.011719 388.289062 627.359375 C 386.789062 626.707031 385.351562 625.988281 383.976562 625.203125 C 382.605469 624.417969 381.304688 623.570312 380.074219 622.660156 C 378.84375 621.75 377.691406 620.78125 376.613281 619.753906 C 375.539062 618.726562 374.546875 617.644531 373.632812 616.511719 C 372.722656 615.378906 371.898438 614.195312 371.160156 612.964844 C 370.421875 611.734375 369.773438 610.464844 369.21875 609.148438 C 368.660156 607.835938 368.195312 606.488281 367.824219 605.101562 C 367.453125 603.714844 367.175781 602.300781 366.992188 600.859375 C 366.808594 599.414062 366.722656 597.949219 366.730469 596.460938 C 366.742188 594.972656 366.84375 593.472656 367.042969 591.953125 C 367.246094 590.4375 367.539062 588.914062 367.925781 587.378906 C 368.316406 585.847656 368.796875 584.3125 369.371094 582.78125 C 369.945312 581.25 370.613281 579.722656 371.367188 578.203125 C 372.121094 576.683594 372.960938 575.179688 373.886719 573.691406 C 374.8125 572.203125 375.824219 570.734375 376.914062 569.289062 C 378.003906 567.839844 379.171875 566.421875 380.414062 565.035156 C 381.65625 563.644531 382.972656 562.292969 384.355469 560.972656 C 385.742188 559.652344 387.191406 558.378906 388.703125 557.140625 C 390.214844 555.90625 391.785156 554.71875 393.410156 553.578125 C 395.039062 552.4375 396.710938 551.351562 398.4375 550.316406 C 400.160156 549.285156 401.921875 548.308594 403.726562 547.390625 C 405.53125 546.472656 407.371094 545.617188 409.238281 544.824219 C 411.105469 544.03125 412.996094 543.304688 414.910156 542.644531 C 416.824219 541.984375 418.753906 541.394531 420.695312 540.875 C 422.632812 540.351562 424.582031 539.902344 426.53125 539.527344 C 428.480469 539.148438 430.425781 538.84375 432.363281 538.617188 C 434.304688 538.386719 436.226562 538.230469 438.136719 538.152344 C 440.050781 538.070312 441.9375 538.066406 443.800781 538.136719 C 445.660156 538.207031 447.492188 538.355469 449.289062 538.574219 C 451.089844 538.796875 452.84375 539.089844 454.558594 539.460938 C 456.277344 539.828125 457.941406 540.269531 459.558594 540.78125 C 461.175781 541.292969 462.734375 541.875 464.234375 542.527344 C 465.734375 543.179688 467.171875 543.898438 468.546875 544.683594 C 469.917969 545.46875 471.21875 546.316406 472.449219 547.226562 C 473.679688 548.136719 474.832031 549.105469 475.90625 550.132812 C 476.984375 551.160156 477.976562 552.242188 478.890625 553.375 C 479.800781 554.511719 480.625 555.691406 481.363281 556.921875 C 482.101562 558.152344 482.75 559.425781 483.304688 560.738281 Z M 483.304688 560.738281 " fill-opacity="1" fill-rule="nonzero"/><path fill="#18375d" d="M 411.34375 632.875 C 406.574219 632.875 402.035156 632.417969 397.722656 631.511719 C 383.421875 628.5625 372.753906 620.617188 368.210938 609.71875 C 363.445312 598.597656 365.261719 585.65625 372.980469 573.171875 C 380.699219 560.914062 393.410156 550.472656 408.84375 543.890625 C 424.28125 537.304688 440.625 535.261719 454.925781 538.441406 C 469.226562 541.390625 479.898438 549.335938 484.4375 560.234375 C 489.203125 571.355469 487.386719 584.296875 479.671875 596.78125 C 471.953125 609.039062 459.238281 619.480469 443.804688 626.0625 C 432.90625 630.605469 421.785156 632.875 411.34375 632.875 Z M 441.308594 539.347656 C 431.089844 539.347656 420.195312 541.621094 409.753906 545.933594 C 394.773438 552.289062 382.285156 562.503906 374.796875 574.308594 C 367.304688 586.113281 365.714844 598.371094 370.253906 608.585938 C 374.796875 618.800781 384.554688 626.289062 398.175781 629.242188 C 412.023438 632.191406 427.914062 630.375 442.894531 623.792969 C 457.878906 617.4375 470.363281 607.222656 477.855469 595.417969 C 485.34375 583.613281 486.933594 571.355469 482.394531 561.140625 C 478.082031 550.699219 468.09375 543.433594 454.472656 540.710938 C 450.160156 539.804688 445.847656 539.347656 441.308594 539.347656 Z M 441.308594 539.347656 " fill-opacity="1" fill-rule="nonzero"/><path fill="#18375d" d="M 479.671875 576.578125 C 475.8125 576.578125 472.40625 573.625 471.726562 569.765625 L 437.902344 319.613281 C 437.222656 315.300781 440.398438 311.214844 444.710938 310.757812 C 449.023438 310.078125 453.109375 313.257812 453.566406 317.570312 L 487.386719 567.722656 C 488.070312 572.039062 484.890625 576.125 480.578125 576.578125 C 480.351562 576.578125 480.125 576.578125 479.671875 576.578125 Z M 479.671875 576.578125 " fill-opacity="1" fill-rule="nonzero"/></svg>